<?xml version="1.0" encoding="utf-8"?>
<!-- Generator: Adobe Illustrator 15.0.0, SVG Export Plug-In . SVG Version: 6.00 Build 0)  -->
<!DOCTYPE svg PUBLIC "-//W3C//DTD SVG 1.1//EN" "http://www.w3.org/Graphics/SVG/1.1/DTD/svg11.dtd">
<svg version="1.1" id="Layer_1" xmlns="http://www.w3.org/2000/svg" xmlns:xlink="http://www.w3.org/1999/xlink" x="0px" y="0px"
	 width="558.425px" height="510.236px" viewBox="0 0 558.425 510.236" enable-background="new 0 0 558.425 510.236"
	 xml:space="preserve">
<g opacity="0.47">
	<path fill="#231F20" stroke="#231F20" stroke-width="0.25" stroke-miterlimit="10" d="M478.636,223.532
		c0,5.58-83.352,10.102-186.171,10.102s-186.18-4.521-186.18-10.102c0-5.579,83.36-10.099,186.18-10.099
		S478.636,217.953,478.636,223.532z"/>
	
		<ellipse fill="#231F20" stroke="#231F20" stroke-width="0.25" stroke-miterlimit="10" cx="288.986" cy="434.831" rx="147.378" ry="7.474"/>
	
		<line fill="#231F20" stroke="#231F20" stroke-width="0.25" stroke-miterlimit="10" x1="106.163" y1="226.248" x2="141.607" y2="434.831"/>
	
		<line fill="#231F20" stroke="#231F20" stroke-width="0.25" stroke-miterlimit="10" x1="478.634" y1="226.252" x2="436.491" y2="434.834"/>
	
		<rect x="125.33" y="209.714" transform="matrix(0.9877 -0.1563 0.1563 0.9877 -50.2793 31.349)" fill="#231F20" stroke="#231F20" stroke-width="0.25" stroke-miterlimit="10" width="97.772" height="251.398"/>
	
		<rect x="357.558" y="210.762" transform="matrix(0.9808 0.1948 -0.1948 0.9808 73.0821 -72.7503)" fill="#231F20" stroke="#231F20" stroke-width="0.25" stroke-miterlimit="10" width="97.771" height="248.904"/>
	
		<ellipse fill="#231F20" stroke="#231F20" stroke-width="0.25" stroke-miterlimit="10" cx="292.524" cy="220.943" rx="186.112" ry="39.522"/>
	<path fill="#231F20" stroke="#231F20" stroke-width="0.25" stroke-miterlimit="10" d="M429.935,466.8
		c0,13.939-63.666,25.24-142.207,25.24c-78.537,0-142.205-11.301-142.205-25.24s63.668-25.24,142.205-25.24
		C366.269,441.56,429.935,452.861,429.935,466.8z"/>
	
		<rect x="146.104" y="220.943" fill="#231F20" stroke="#231F20" stroke-width="0.25" stroke-miterlimit="10" width="283.5" height="246.269"/>
</g>
<g>
	<g>
		<path fill="#FAFAFC" d="M180.79,239.785c-3.587,1.427-7.326,2.771-11.226,4.055c-3.897,1.283-7.621,2.549-11.173,3.782
			c-0.422,0.266-0.794,0.378-1.117,0.339c-0.323-0.04-0.622-0.147-0.899-0.322s-0.499-0.375-0.664-0.604
			c-0.165-0.228-0.288-0.42-0.368-0.576c0.75-0.363,2.049-0.981,3.904-1.836c1.854-0.854,4.067-1.851,6.645-2.968
			c2.581-1.118,5.41-2.281,8.494-3.47c3.085-1.189,6.205-2.313,9.357-3.369s6.234-1.998,9.235-2.829
			c3.003-0.832,5.691-1.454,8.054-1.889c2.36-0.434,4.291-0.647,5.78-0.659c1.492-0.011,2.325,0.261,2.501,0.802
			c0.13,0.4,0.178,0.816,0.15,1.247c-0.031,0.433-0.377,0.75-1.038,0.955c-1.937,0.506-3.892,0.886-5.879,1.144
			c-1.985,0.257-3.964,0.554-5.936,0.89c-1.971,0.335-3.946,0.792-5.923,1.371c-1.978,0.58-3.886,1.46-5.708,2.636
			c0.697,1.7,1.586,3.501,2.662,5.408c1.074,1.907,2.228,3.841,3.454,5.808c1.226,1.964,2.477,3.917,3.749,5.857
			c1.273,1.94,2.476,3.767,3.611,5.477c0.288,0.436,0.67,0.828,1.146,1.181c0.474,0.354,0.953,0.69,1.436,1.012
			c0.48,0.322,0.926,0.665,1.341,1.025c0.412,0.363,0.7,0.769,0.863,1.216c0.112,0.309,0.083,0.578-0.089,0.81
			c-0.174,0.232-0.417,0.434-0.728,0.604c-0.315,0.171-0.655,0.321-1.025,0.448c-0.369,0.13-0.676,0.236-0.922,0.323
			c-0.946,0.333-1.793,0.304-2.545-0.089c-0.75-0.393-1.425-0.937-2.021-1.636c-0.598-0.697-1.115-1.448-1.555-2.25
			c-0.439-0.802-0.818-1.445-1.133-1.929c-1.194-1.865-2.315-3.692-3.356-5.484c-1.042-1.791-2.062-3.581-3.055-5.371
			c-0.995-1.789-1.977-3.607-2.946-5.452C182.897,243.595,181.874,241.709,180.79,239.785z"/>
		<path fill="#FAFAFC" d="M220.874,261.154c-1.499-1.232-2.912-2.639-4.241-4.218c-1.328-1.582-2.567-3.198-3.711-4.856
			c-1.144-1.657-2.164-3.294-3.053-4.914c-0.89-1.621-1.627-3.106-2.209-4.46c-0.085-0.256-0.204-0.54-0.351-0.854
			c-0.149-0.313-0.271-0.644-0.367-0.991c-0.097-0.346-0.131-0.695-0.104-1.049c0.026-0.354,0.156-0.693,0.386-1.017
			c0.039-0.012,0.077-0.024,0.115-0.036c0.037-0.012,0.063-0.027,0.078-0.049c0.015-0.02,0.04-0.036,0.077-0.047
			c0.039-0.013,0.071-0.015,0.093-0.006c0.024,0.009,0.075,0,0.152-0.024c0.058-0.019,0.115-0.037,0.173-0.055
			c0.123-0.007,0.398-0.007,0.822,0.002c0.425,0.009,0.705,0.025,0.838,0.046c0.842-0.511,1.703-1.071,2.583-1.679
			c0.878-0.608,1.774-1.203,2.69-1.782c0.915-0.58,1.854-1.115,2.823-1.607c0.965-0.492,1.956-0.877,2.969-1.154
			c0.701-0.191,1.329-0.336,1.888-0.439c0.558-0.103,1.12-0.182,1.691-0.239c0.569-0.056,1.188-0.092,1.851-0.105
			c0.665-0.016,1.433-0.023,2.307-0.025c0.452,0.137,0.89,0.263,1.314,0.376c0.425,0.113,0.82,0.274,1.183,0.481
			c0.365,0.208,0.673,0.492,0.933,0.85c0.256,0.357,0.443,0.851,0.564,1.476c-0.828,0.292-1.807,0.475-2.937,0.551
			c-1.131,0.079-2.34,0.142-3.627,0.195c-1.285,0.052-2.596,0.148-3.926,0.29c-1.33,0.141-2.585,0.411-3.759,0.805
			c-1.175,0.395-2.224,0.962-3.143,1.7c-0.918,0.739-1.621,1.714-2.107,2.925c0.017,1.215,0.225,2.343,0.618,3.384
			c0.394,1.041,0.901,2.025,1.52,2.953c0.621,0.929,1.316,1.827,2.091,2.698c0.772,0.871,1.524,1.749,2.252,2.636
			c0.727,0.889,1.405,1.792,2.032,2.71c0.629,0.919,1.131,1.889,1.51,2.907c0.119,0.405-0.03,0.898-0.438,1.479
			C222.043,260.593,221.518,260.974,220.874,261.154z"/>
		<path fill="#FAFAFC" d="M237.562,246.412c-0.127-0.687-0.063-1.518,0.197-2.495c0.261-0.976,0.767-1.975,1.524-2.999
			c0.758-1.021,1.797-2.025,3.122-3.003c1.324-0.977,2.982-1.807,4.97-2.474c1.988-0.667,4.319-1.121,6.98-1.337
			c2.66-0.215,5.69-0.093,9.062,0.402c-0.003-0.029-0.058-0.225-0.154-0.583c-0.097-0.358-0.149-0.552-0.153-0.583
			c-0.173-1.062-0.737-2.073-1.701-3.028s-2.134-1.773-3.513-2.448c-1.379-0.674-2.843-1.156-4.392-1.44
			c-1.55-0.287-2.981-0.303-4.289-0.056c-0.553,0.105-1.015,0.264-1.383,0.475c-0.368,0.21-0.711,0.434-1.031,0.667
			c-0.32,0.235-0.634,0.452-0.94,0.653s-0.695,0.348-1.166,0.444c-0.08,0.015-0.143,0.012-0.187-0.009
			c-0.047-0.021-0.113-0.039-0.199-0.053c-0.129-0.035-0.298-0.103-0.505-0.2c-0.205-0.099-0.312-0.162-0.319-0.191
			c-0.157-0.715-0.117-1.368,0.124-1.961c0.243-0.593,0.626-1.115,1.151-1.564c0.524-0.448,1.161-0.831,1.903-1.148
			c0.745-0.316,1.556-0.559,2.437-0.726c2.195-0.228,4.336-0.1,6.405,0.385c2.068,0.485,4.017,1.235,5.835,2.243
			c1.821,1.009,3.465,2.246,4.935,3.702c1.47,1.457,2.725,3.023,3.772,4.692c1.045,1.668,1.832,3.4,2.363,5.184
			c0.531,1.786,0.768,3.522,0.723,5.208c-0.037,0.005-0.189,0.016-0.455,0.032c-0.267,0.016-0.54,0.034-0.826,0.052
			c-0.285,0.021-0.675,0.03-1.173,0.031c-1.324-1.793-2.738-3.191-4.232-4.195c-1.498-1.004-2.956-1.731-4.369-2.185
			c-1.412-0.454-2.712-0.721-3.895-0.808c-1.181-0.087-2.128-0.128-2.845-0.13c-0.769,0.133-1.672,0.337-2.709,0.615
			c-1.038,0.28-2.103,0.624-3.19,1.032c-1.087,0.408-2.161,0.888-3.212,1.439c-1.055,0.552-1.973,1.159-2.757,1.818
			c-0.784,0.66-1.37,1.383-1.763,2.166c-0.394,0.784-0.488,1.604-0.291,2.464c0.219,0.949,0.889,1.645,1.999,2.098
			c1.111,0.451,2.369,0.748,3.77,0.891c1.4,0.144,2.811,0.178,4.237,0.103c1.423-0.076,2.56-0.182,3.414-0.33
			c1.372-0.239,2.716-0.524,4.034-0.861c1.316-0.336,2.614-0.685,3.893-1.046c1.278-0.362,2.563-0.694,3.856-0.997
			c1.29-0.301,2.594-0.538,3.906-0.703c0.113-0.014,0.291-0.037,0.536-0.067c0.244-0.031,0.498-0.055,0.763-0.072
			c0.264-0.016,0.521-0.039,0.764-0.068c0.245-0.03,0.403-0.048,0.479-0.058c0.428,0.073,0.686,0.23,0.774,0.468
			c0.088,0.239,0.148,0.48,0.18,0.726c0.031,0.246-0.252,0.549-0.849,0.915c-0.595,0.366-1.367,0.754-2.312,1.167
			c-0.945,0.415-2,0.845-3.16,1.296c-1.162,0.452-2.286,0.864-3.376,1.24c-1.092,0.375-2.094,0.704-3.008,0.984
			c-0.916,0.28-1.591,0.457-2.033,0.527c-2.057,0.329-4.243,0.55-6.57,0.673c-2.328,0.124-4.524,0.017-6.606-0.328
			c-2.083-0.345-3.9-1.025-5.457-2.055C239.092,249.97,238.058,248.448,237.562,246.412z"/>
		<path fill="#FAFAFC" d="M274.611,228.501c0.024-0.127,0.083-0.297,0.176-0.511c0.094-0.213,0.214-0.428,0.367-0.65
			c0.154-0.22,0.318-0.409,0.5-0.57c0.181-0.161,0.39-0.255,0.627-0.281c0.041-0.005,0.069,0,0.092,0.012
			c0.021,0.014,0.071,0.016,0.152,0.006c0.059-0.006,0.118-0.013,0.178-0.02c1.286,0.324,2.374,0.873,3.26,1.638
			c0.885,0.767,1.678,1.654,2.381,2.664c0.699,1.008,1.373,2.092,2.018,3.25c0.646,1.16,1.342,2.308,2.086,3.448
			c0.747,1.141,1.595,2.229,2.548,3.266c0.95,1.039,2.12,1.948,3.51,2.736c0.361-1.271,0.73-2.512,1.104-3.722
			c0.375-1.21,0.819-2.432,1.338-3.664c0.518-1.233,1.131-2.517,1.851-3.854c0.718-1.335,1.567-2.764,2.549-4.281
			c1.242-0.498,2.252-0.798,3.021-0.906c0.77-0.109,1.309-0.058,1.617,0.15c0.308,0.209,0.372,0.553,0.194,1.028
			c-0.178,0.476-0.585,1.039-1.228,1.689c-0.379,0.295-0.83,0.979-1.344,2.048c-0.517,1.07-1.046,2.321-1.588,3.754
			c-0.546,1.432-1.116,2.937-1.717,4.513c-0.6,1.577-1.208,3.021-1.825,4.334c-0.621,1.314-1.247,2.401-1.884,3.265
			c-0.636,0.862-1.27,1.281-1.905,1.256c-0.67,0.04-1.476-0.356-2.422-1.181c-0.949-0.825-1.979-1.899-3.102-3.216
			c-1.123-1.315-2.281-2.771-3.481-4.363c-1.199-1.591-2.366-3.155-3.495-4.693s-2.192-2.943-3.179-4.221
			S275.22,229.177,274.611,228.501z"/>
		<path fill="#FAFAFC" d="M307.153,231.685c-0.074-2.164,0.252-4.251,1.001-6.263c0.75-2.011,1.897-3.79,3.46-5.324
			c1.56-1.535,3.499-2.763,5.825-3.667c2.323-0.904,5.018-1.342,8.062-1.286c1.811,0.223,3.379,0.644,4.7,1.256
			c1.32,0.612,2.396,1.375,3.228,2.283c0.828,0.907,1.411,1.936,1.754,3.08c0.342,1.146,0.462,2.354,0.372,3.62
			c-0.063,1.524-0.691,2.869-1.866,4.035c-1.179,1.168-2.614,2.128-4.305,2.888c-1.694,0.762-3.505,1.336-5.444,1.732
			c-1.94,0.398-3.742,0.592-5.415,0.577c-0.624-0.006-1.259-0.017-1.9-0.036c-0.645-0.018-1.218-0.104-1.727-0.262
			c-0.508-0.157-0.92-0.407-1.239-0.752c-0.318-0.345-0.482-0.847-0.495-1.507c-0.004-0.22,0.032-0.401,0.109-0.544
			c0.076-0.142,0.29-0.246,0.643-0.31c0.354-0.066,0.886-0.076,1.592-0.03c0.709,0.046,1.711,0.165,3.011,0.364
			c0.706,0.005,1.767-0.182,3.187-0.555c1.419-0.371,2.854-0.855,4.311-1.449c1.453-0.594,2.73-1.272,3.826-2.042
			c1.098-0.769,1.665-1.562,1.688-2.386c0.024-0.826-0.134-1.656-0.473-2.495c-0.342-0.838-0.849-1.583-1.525-2.24
			c-0.676-0.655-1.492-1.186-2.442-1.588c-0.952-0.404-2.024-0.583-3.205-0.539c-1.921,0.097-3.653,0.487-5.191,1.162
			c-1.54,0.675-2.845,1.546-3.914,2.609s-1.879,2.26-2.426,3.586c-0.549,1.328-0.805,2.684-0.771,4.067
			c0.024,1.069,0.078,2.161,0.16,3.277c0.084,1.115,0.301,2.198,0.649,3.249c0.347,1.052,0.904,2.047,1.664,2.99
			c0.764,0.943,1.841,1.789,3.234,2.542c1.396,0.753,3.151,1.393,5.272,1.937c2.119,0.544,4.745,0.938,7.887,1.217
			c4.52-0.037,9.052,0.014,13.592,0.153c-0.905,0.853-1.985,1.529-3.234,2.038c-1.251,0.509-2.569,0.897-3.962,1.169
			c-1.396,0.271-2.775,0.447-4.152,0.527c-1.375,0.08-2.643,0.095-3.803,0.042c-2.886-0.134-5.596-0.619-8.159-1.465
			c-2.564-0.846-4.824-1.994-6.792-3.458c-1.967-1.465-3.567-3.217-4.795-5.271C307.918,236.563,307.243,234.257,307.153,231.685z"
			/>
		<path fill="#FAFAFC" d="M348.995,249.851c-0.237-3.085-0.303-6.142-0.174-9.167c0.128-3.026,0.323-6.037,0.591-9.032
			c0.268-2.995,0.567-5.979,0.904-8.95c0.336-2.972,0.601-5.957,0.785-8.957c0.026-0.351,0.21-0.576,0.554-0.675
			c0.342-0.099,0.72-0.13,1.137-0.094c0.499,0.045,0.935,0.229,1.306,0.553c0.371,0.323,0.674,0.697,0.909,1.122
			c0.234,0.425,0.405,0.853,0.515,1.28c0.108,0.429,0.15,0.771,0.127,1.026c-0.215,6.127-0.493,11.225-0.79,15.288
			c-0.3,4.063-0.632,7.335-0.982,9.814c-0.353,2.479-0.705,4.304-1.055,5.476c-0.351,1.17-0.727,1.951-1.127,2.341
			c-0.401,0.391-0.819,0.522-1.26,0.392C349.99,250.141,349.514,250,348.995,249.851z"/>
		<path fill="#FAFAFC" d="M357.705,240.424c0.122-0.73,0.475-1.537,1.069-2.418c0.592-0.881,1.426-1.702,2.51-2.457
			c1.083-0.752,2.43-1.389,4.041-1.899c1.607-0.509,3.485-0.755,5.623-0.725c2.138,0.031,4.53,0.396,7.155,1.113
			c2.627,0.716,5.49,1.898,8.553,3.571c0.007-0.032,0.024-0.245,0.06-0.636c0.033-0.392,0.052-0.603,0.059-0.634
			c0.209-1.12,0.024-2.325-0.562-3.614c-0.588-1.29-1.423-2.514-2.507-3.67c-1.085-1.155-2.32-2.147-3.702-2.975
			c-1.386-0.828-2.75-1.346-4.089-1.558c-0.567-0.09-1.064-0.093-1.492-0.013c-0.426,0.082-0.832,0.184-1.223,0.303
			c-0.387,0.122-0.764,0.229-1.129,0.321c-0.362,0.093-0.787,0.104-1.272,0.034c-0.08-0.012-0.14-0.037-0.174-0.074
			c-0.037-0.038-0.094-0.079-0.171-0.122c-0.111-0.082-0.25-0.208-0.414-0.378c-0.161-0.169-0.24-0.27-0.236-0.302
			c0.102-0.767,0.369-1.405,0.811-1.912c0.44-0.507,0.99-0.893,1.652-1.155c0.659-0.263,1.402-0.423,2.226-0.478
			c0.824-0.055,1.687-0.012,2.588,0.13c2.184,0.542,4.188,1.419,6.001,2.628c1.812,1.208,3.419,2.638,4.809,4.279
			c1.391,1.642,2.535,3.451,3.433,5.416c0.897,1.967,1.551,3.967,1.969,5.996c0.415,2.029,0.559,4.029,0.438,5.994
			c-0.118,1.966-0.505,3.779-1.146,5.443c-0.037-0.008-0.188-0.051-0.448-0.127c-0.263-0.077-0.533-0.156-0.815-0.236
			c-0.279-0.08-0.661-0.206-1.138-0.379c-0.64-2.249-1.505-4.138-2.588-5.661s-2.227-2.759-3.424-3.705
			c-1.193-0.945-2.347-1.667-3.45-2.167c-1.104-0.5-1.998-0.873-2.682-1.125c-0.784-0.136-1.722-0.249-2.814-0.334
			s-2.232-0.113-3.418-0.088s-2.383,0.127-3.582,0.309c-1.202,0.181-2.294,0.464-3.275,0.847c-0.983,0.383-1.798,0.898-2.448,1.542
			c-0.653,0.642-1.032,1.428-1.146,2.355c-0.125,1.023,0.267,1.952,1.169,2.793c0.903,0.839,1.999,1.576,3.286,2.21
			c1.287,0.634,2.626,1.163,4.017,1.586c1.391,0.423,2.518,0.714,3.387,0.866c1.396,0.242,2.788,0.426,4.169,0.551
			c1.383,0.126,2.751,0.231,4.105,0.317c1.356,0.086,2.707,0.204,4.057,0.353c1.347,0.151,2.683,0.371,4.005,0.664
			c0.113,0.025,0.293,0.066,0.537,0.12c0.247,0.054,0.5,0.12,0.763,0.196c0.257,0.076,0.513,0.141,0.758,0.197
			c0.246,0.056,0.403,0.092,0.48,0.11c0.388,0.222,0.581,0.469,0.581,0.738c0.001,0.268-0.026,0.53-0.083,0.786
			c-0.058,0.256-0.438,0.459-1.141,0.616c-0.704,0.158-1.585,0.274-2.64,0.355c-1.056,0.084-2.222,0.145-3.495,0.189
			c-1.276,0.045-2.502,0.064-3.684,0.057c-1.181-0.007-2.258-0.029-3.233-0.07c-0.979-0.041-1.689-0.099-2.137-0.184
			c-2.088-0.39-4.263-0.933-6.532-1.625c-2.271-0.69-4.335-1.566-6.203-2.64c-1.868-1.072-3.363-2.389-4.486-3.963
			C357.911,244.511,357.46,242.629,357.705,240.424z"/>
		<path fill="#FAFAFC" d="M397.031,250.019c0.613-2.68,1.687-4.797,3.249-6.338c1.562-1.542,3.438-2.633,5.626-3.262
			c2.188-0.626,4.621-0.848,7.285-0.649c2.665,0.2,5.379,0.706,8.126,1.525c2.239,0.667,4.342,1.624,6.296,2.872
			c1.952,1.248,3.584,2.685,4.884,4.298s2.18,3.353,2.643,5.211c0.462,1.855,0.351,3.746-0.31,5.667
			c-0.584,1.701-1.444,2.949-2.569,3.747c-1.127,0.798-2.417,1.282-3.872,1.459c-1.459,0.178-3.003,0.12-4.643-0.17
			c-1.638-0.288-3.264-0.691-4.885-1.213c-1.546-0.495-3.134-1.053-4.766-1.671c-1.63-0.616-3.063-1.359-4.308-2.233
			c-1.241-0.873-2.187-1.9-2.838-3.088s-0.77-2.606-0.344-4.263c1.062,0.286,2.038,0.744,2.927,1.369
			c0.889,0.625,1.775,1.29,2.658,1.994c0.882,0.701,1.768,1.377,2.66,2.024c0.891,0.646,1.876,1.139,2.958,1.476
			c0.819,0.256,1.892,0.522,3.214,0.809c1.324,0.288,2.629,0.445,3.919,0.473c1.288,0.027,2.461-0.117,3.523-0.438
			c1.059-0.321,1.755-0.969,2.077-1.947c0.468-1.42,0.499-2.791,0.082-4.108c-0.417-1.317-1.138-2.539-2.164-3.662
			c-1.024-1.122-2.259-2.113-3.697-2.965c-1.438-0.849-2.937-1.509-4.491-1.975c-0.231-0.07-0.749-0.18-1.546-0.33
			c-0.803-0.15-1.753-0.282-2.854-0.392c-1.102-0.109-2.253-0.178-3.454-0.203c-1.203-0.026-2.34,0.031-3.409,0.171
			c-1.072,0.139-1.979,0.384-2.725,0.732c-0.743,0.349-1.194,0.844-1.352,1.48c-0.063,0.255-0.126,0.511-0.188,0.766
			c-0.079,0.489-0.179,1.132-0.294,1.933c-0.118,0.8-0.236,1.602-0.356,2.402c-0.118,0.8-0.215,1.505-0.287,2.115
			c-0.075,0.61-0.122,0.961-0.146,1.057c-0.059,0.7-0.145,1.791-0.262,3.272c-0.122,1.482-0.256,3.148-0.402,5.001
			c-0.15,1.852-0.304,3.807-0.465,5.864c-0.161,2.057-0.323,4.014-0.485,5.868c-0.163,1.856-0.307,3.513-0.429,4.972
			c-0.123,1.458-0.213,2.541-0.263,3.248c-0.018,0.063-0.027,0.13-0.027,0.2c-0.002,0.066-0.009,0.133-0.028,0.197
			c-0.008,0.03-0.024,0.053-0.046,0.062c-0.021,0.013-0.037,0.033-0.046,0.064c-0.013,0.048-0.026,0.096-0.04,0.144
			c-0.104,0.105-0.372,0.258-0.797,0.459c-0.429,0.199-0.719,0.312-0.872,0.336c-0.12-0.035-0.239-0.07-0.359-0.105
			c-0.445-0.13-0.816-0.667-1.117-1.609c-0.303-0.943-0.544-2.156-0.729-3.644c-0.188-1.487-0.33-3.172-0.434-5.055
			c-0.104-1.885-0.178-3.824-0.217-5.819c-0.039-1.996-0.067-3.977-0.078-5.941c-0.013-1.966-0.005-3.771,0.027-5.419
			c0.032-1.646,0.084-3.066,0.162-4.26C396.831,251.334,396.922,250.497,397.031,250.019z"/>
		<path fill="#FAFAFC" d="M166.161,361.661c0.239-0.142,0.499-0.285,0.777-0.433c0.279-0.146,0.559-0.251,0.841-0.314
			c0.28-0.064,0.55-0.062,0.809,0.002c0.261,0.066,0.484,0.243,0.671,0.533c0.22,0.336,0.165,0.599-0.16,0.786
			c-0.365,0.21-0.729,0.358-1.096,0.447c-0.365,0.09-0.744,0.249-1.13,0.477c-0.489,0.288-0.952,0.601-1.389,0.936
			c-0.437,0.336-0.871,0.685-1.3,1.045s-0.859,0.71-1.293,1.052c-0.433,0.342-0.89,0.662-1.37,0.961
			c-0.264-0.374-0.384-0.726-0.362-1.059c0.023-0.333,0.139-0.656,0.346-0.969c0.209-0.313,0.486-0.61,0.835-0.892
			c0.347-0.279,0.717-0.547,1.11-0.801c0.391-0.255,0.778-0.5,1.155-0.734c0.378-0.234,0.707-0.46,0.985-0.675
			c0.101-0.059,0.18-0.109,0.239-0.153c0.059-0.043,0.12-0.083,0.182-0.121C166.073,361.711,166.122,361.683,166.161,361.661z"/>
		<path fill="#FAFAFC" d="M179.45,364.858c-0.03-0.049-0.082-0.136-0.157-0.26c-0.074-0.124-0.157-0.255-0.25-0.394
			c-0.092-0.138-0.175-0.271-0.25-0.394c-0.074-0.124-0.125-0.21-0.156-0.259c-0.425-0.705-0.768-1.354-1.028-1.95
			c-0.26-0.597-0.483-1.191-0.667-1.788c-0.185-0.596-0.352-1.217-0.497-1.866c-0.146-0.648-0.329-1.381-0.546-2.196
			c-0.016-0.024-0.047-0.085-0.096-0.182c-0.049-0.096-0.082-0.156-0.097-0.181c0.019-0.026-0.181-0.027-0.599,0.002
			c-0.418,0.027-0.953,0.033-1.606,0.019c-0.653-0.013-1.388-0.065-2.207-0.154c-0.818-0.089-1.634-0.268-2.445-0.534
			s-1.576-0.648-2.298-1.145c-0.72-0.496-1.301-1.163-1.737-2.003c0.013-0.009,0.057-0.038,0.132-0.089s0.158-0.112,0.249-0.181
			c0.091-0.069,0.177-0.131,0.258-0.187c0.081-0.054,0.127-0.085,0.142-0.094c0.327,0.26,0.729,0.526,1.2,0.802
			c0.472,0.277,0.99,0.54,1.556,0.791c0.565,0.249,1.157,0.475,1.773,0.674c0.614,0.201,1.224,0.347,1.826,0.434
			c0.602,0.088,1.183,0.108,1.748,0.058c0.563-0.051,1.071-0.197,1.526-0.438c-0.081-0.823-0.14-1.479-0.179-1.965
			c-0.038-0.485-0.072-0.863-0.102-1.134c-0.032-0.269-0.063-0.469-0.097-0.598c-0.033-0.129-0.074-0.259-0.125-0.387
			c-0.05-0.13-0.118-0.289-0.205-0.479c-0.087-0.191-0.197-0.487-0.331-0.892c-0.045-0.074-0.021-0.181,0.073-0.319
			c0.092-0.139,0.21-0.257,0.353-0.357c0.142-0.1,0.293-0.158,0.457-0.179c0.161-0.02,0.294,0.042,0.395,0.185
			c0.532,0.912,0.927,1.839,1.19,2.776c0.265,0.937,0.47,1.882,0.62,2.83c0.148,0.948,0.279,1.898,0.393,2.85
			c0.115,0.949,0.287,1.898,0.516,2.846c0.23,0.946,0.552,1.886,0.966,2.816c0.415,0.932,0.993,1.852,1.732,2.769
			c0.012,0.238-0.01,0.42-0.065,0.546c-0.054,0.126-0.168,0.235-0.341,0.326s-0.334,0.126-0.484,0.107
			C179.841,365.067,179.661,364.99,179.45,364.858z"/>
		<path fill="#FAFAFC" d="M182.294,356.875c-0.522-0.919-0.776-1.829-0.755-2.731c0.02-0.901,0.239-1.757,0.656-2.564
			c0.417-0.806,0.99-1.539,1.718-2.191c0.727-0.653,1.524-1.186,2.385-1.595c0.45-0.212,0.923-0.332,1.415-0.353
			c0.493-0.021,0.992,0.028,1.497,0.148c0.506,0.12,0.994,0.302,1.467,0.542c0.474,0.241,0.91,0.52,1.313,0.835
			c0.401,0.315,0.76,0.653,1.078,1.016c0.317,0.361,0.568,0.727,0.75,1.092c0.444,0.89,0.664,1.762,0.665,2.616
			c0.002,0.853-0.164,1.648-0.495,2.389s-0.797,1.398-1.399,1.979s-1.28,1.047-2.037,1.401c-0.771,0.36-1.543,0.577-2.322,0.646
			c-0.782,0.069-1.533,0.001-2.26-0.208c-0.725-0.208-1.406-0.565-2.042-1.073C183.291,358.317,182.746,357.668,182.294,356.875z
			 M183.436,356.059c0.292,0.519,0.669,0.966,1.132,1.343c0.462,0.377,0.969,0.661,1.518,0.853c0.549,0.192,1.116,0.279,1.699,0.265
			c0.583-0.015,1.146-0.151,1.692-0.409c0.312-0.1,0.641-0.311,0.985-0.633c0.345-0.321,0.663-0.705,0.954-1.152
			c0.291-0.446,0.537-0.936,0.739-1.468c0.203-0.533,0.322-1.067,0.36-1.604c0.036-0.536-0.028-1.047-0.193-1.532
			c-0.166-0.485-0.478-0.908-0.937-1.269c-0.457-0.361-1.082-0.624-1.875-0.787c-0.792-0.163-1.792-0.188-2.995-0.066
			c-0.579,0.276-1.137,0.648-1.669,1.115c-0.532,0.468-0.962,0.99-1.29,1.563c-0.329,0.574-0.521,1.188-0.578,1.839
			C182.921,354.768,183.075,355.416,183.436,356.059z"/>
		<path fill="#FAFAFC" d="M205.521,348.415c-0.308,0.388-0.533,0.805-0.675,1.247c-0.141,0.443-0.291,0.874-0.449,1.291
			c-0.158,0.419-0.367,0.808-0.627,1.164s-0.66,0.645-1.203,0.865c-0.621,0.252-1.247,0.344-1.88,0.272
			c-0.635-0.069-1.257-0.253-1.866-0.552c-0.609-0.298-1.2-0.682-1.774-1.15c-0.574-0.471-1.105-0.978-1.594-1.521
			c-0.489-0.545-0.929-1.098-1.319-1.66c-0.391-0.562-0.706-1.086-0.946-1.571c-0.614-0.878-0.958-1.627-1.032-2.251
			c-0.071-0.623-0.005-1.068,0.201-1.334c0.204-0.267,0.463-0.336,0.771-0.209c0.308,0.129,0.529,0.499,0.665,1.109
			c0.005,0.078,0.031,0.199,0.078,0.361c0.047,0.164,0.1,0.327,0.156,0.494s0.109,0.323,0.156,0.471
			c0.047,0.146,0.084,0.246,0.11,0.299c0.179,0.368,0.429,0.786,0.745,1.254c0.317,0.469,0.683,0.943,1.099,1.425
			c0.417,0.482,0.868,0.941,1.355,1.379c0.485,0.438,0.985,0.802,1.499,1.094c0.515,0.292,1.034,0.488,1.562,0.586
			c0.527,0.1,1.037,0.049,1.533-0.152c0.312-0.128,0.594-0.428,0.849-0.902c0.257-0.476,0.466-1.003,0.632-1.584
			c0.167-0.579,0.271-1.154,0.314-1.725c0.042-0.569,0.002-1.013-0.122-1.327c-0.078-0.175-0.206-0.473-0.384-0.893
			c-0.179-0.42-0.37-0.861-0.577-1.326c-0.206-0.464-0.406-0.902-0.598-1.317c-0.192-0.413-0.325-0.701-0.396-0.862
			c0.024-0.231,0.077-0.419,0.158-0.562c0.079-0.143,0.215-0.252,0.404-0.328c0.218-0.086,0.463-0.012,0.732,0.223
			c0.27,0.234,0.546,0.556,0.829,0.969c0.283,0.41,0.555,0.873,0.818,1.387c0.263,0.515,0.509,1.011,0.74,1.49
			c0.229,0.479,0.433,0.902,0.607,1.27s0.307,0.604,0.398,0.712c0.251,0.329,0.559,0.685,0.922,1.067
			c0.363,0.382,0.714,0.758,1.053,1.126c0.34,0.369,0.643,0.708,0.911,1.018c0.266,0.311,0.436,0.555,0.51,0.729
			c0.114,0.273,0.108,0.465-0.018,0.574c-0.127,0.11-0.301,0.206-0.522,0.289c-0.272,0.103-0.504,0.106-0.695,0.014
			c-0.19-0.094-0.366-0.239-0.527-0.438c-0.162-0.198-0.318-0.431-0.471-0.696c-0.152-0.265-0.329-0.524-0.53-0.778
			c-0.202-0.255-0.428-0.479-0.681-0.673C206.188,348.586,205.881,348.464,205.521,348.415z"/>
		<path fill="#FAFAFC" d="M213.47,350.014c-0.672-0.593-1.322-1.27-1.951-2.032c-0.629-0.763-1.224-1.543-1.787-2.343
			c-0.562-0.801-1.074-1.591-1.532-2.373c-0.459-0.782-0.851-1.497-1.172-2.148c-0.052-0.122-0.117-0.26-0.197-0.41
			c-0.08-0.152-0.149-0.311-0.211-0.478c-0.063-0.165-0.102-0.331-0.117-0.498c-0.016-0.17,0.008-0.328,0.071-0.478
			c0.013-0.005,0.027-0.01,0.04-0.016c0.014-0.006,0.022-0.013,0.027-0.021c0.004-0.01,0.013-0.018,0.026-0.021
			c0.013-0.005,0.024-0.007,0.035-0.002c0.01,0.004,0.027,0.002,0.055-0.009c0.021-0.008,0.041-0.016,0.062-0.023
			c0.048-0.002,0.151,0.003,0.313,0.013c0.163,0.01,0.269,0.021,0.322,0.033c0.283-0.231,0.567-0.485,0.854-0.765
			c0.287-0.28,0.582-0.553,0.883-0.82c0.301-0.267,0.615-0.515,0.943-0.742c0.326-0.227,0.668-0.405,1.027-0.532
			c0.25-0.088,0.474-0.155,0.675-0.202c0.201-0.048,0.407-0.085,0.617-0.112c0.209-0.025,0.438-0.042,0.687-0.05
			c0.246-0.008,0.534-0.012,0.862-0.015c0.18,0.063,0.355,0.121,0.523,0.174c0.168,0.054,0.329,0.127,0.483,0.225
			c0.154,0.097,0.293,0.23,0.418,0.398c0.126,0.169,0.238,0.402,0.334,0.699c-0.285,0.143-0.639,0.235-1.056,0.275
			c-0.419,0.04-0.868,0.073-1.35,0.099c-0.479,0.025-0.964,0.069-1.456,0.133c-0.49,0.063-0.944,0.186-1.357,0.365
			c-0.413,0.18-0.767,0.441-1.058,0.783c-0.292,0.343-0.485,0.8-0.579,1.369c0.097,0.577,0.26,1.115,0.489,1.615
			c0.228,0.497,0.496,0.97,0.803,1.417c0.307,0.447,0.64,0.879,1.002,1.298c0.361,0.421,0.715,0.843,1.062,1.269
			c0.346,0.426,0.674,0.859,0.986,1.297c0.311,0.439,0.578,0.903,0.801,1.389c0.077,0.193,0.058,0.427-0.056,0.702
			C213.88,349.752,213.705,349.931,213.47,350.014z"/>
		<path fill="#FAFAFC" d="M230.703,333.903c-0.139,0.038-0.397,0.104-0.774,0.201s-0.774,0.168-1.191,0.214
			c-0.415,0.046-0.808,0.042-1.174-0.018c-0.368-0.059-0.605-0.227-0.712-0.508c-0.028-0.085-0.051-0.204-0.068-0.354
			c-0.018-0.15,0.05-0.247,0.203-0.291c0.937-0.355,1.876-0.705,2.818-1.05c-0.134-0.726-0.257-1.317-0.368-1.776
			c-0.112-0.46-0.236-0.884-0.374-1.274c-0.136-0.389-0.291-0.794-0.46-1.214s-0.37-0.971-0.599-1.653
			c-0.041-0.128-0.043-0.24-0.011-0.336c0.032-0.094,0.086-0.176,0.158-0.242s0.158-0.121,0.253-0.164
			c0.096-0.042,0.179-0.073,0.252-0.093c0.115-0.032,0.245-0.029,0.389,0.01c0.145,0.038,0.28,0.102,0.41,0.19
			c0.128,0.089,0.242,0.19,0.337,0.304c0.097,0.113,0.163,0.228,0.198,0.343c0.625,1.767,1.246,3.535,1.862,5.305
			c0.811-0.178,1.622-0.352,2.434-0.521c0.314-0.111,0.634-0.119,0.956-0.021c0.322,0.097,0.552,0.361,0.689,0.792
			c-0.155,0.302-0.381,0.519-0.682,0.649s-0.626,0.236-0.977,0.318c-0.351,0.083-0.693,0.172-1.025,0.268
			c-0.334,0.094-0.598,0.262-0.799,0.501c0.034,0.115,0.137,0.43,0.307,0.944c0.168,0.515,0.369,1.121,0.6,1.822
			c0.23,0.7,0.48,1.449,0.747,2.249c0.268,0.801,0.512,1.54,0.734,2.22s0.41,1.26,0.566,1.739c0.155,0.479,0.242,0.748,0.259,0.807
			c-0.34,0.366-0.681,0.426-1.027,0.183c-0.346-0.243-0.69-0.658-1.034-1.243c-0.344-0.584-0.674-1.285-0.987-2.102
			s-0.601-1.633-0.857-2.45c-0.258-0.815-0.479-1.562-0.667-2.243C230.9,334.727,230.772,334.226,230.703,333.903z"/>
		<path fill="#FAFAFC" d="M242.043,341.721c-0.595-0.687-1.159-1.453-1.691-2.304s-1.03-1.717-1.493-2.599
			c-0.461-0.882-0.875-1.746-1.236-2.596c-0.362-0.85-0.667-1.624-0.908-2.324c-0.037-0.131-0.085-0.277-0.147-0.44
			c-0.061-0.164-0.111-0.333-0.152-0.51c-0.043-0.175-0.062-0.349-0.057-0.521c0.004-0.172,0.047-0.33,0.127-0.474
			c0.014-0.004,0.027-0.007,0.042-0.011c0.015-0.004,0.023-0.011,0.029-0.02c0.005-0.008,0.015-0.015,0.028-0.019
			c0.014-0.003,0.026-0.001,0.036,0.004c0.009,0.004,0.027,0.005,0.055-0.003c0.021-0.005,0.043-0.011,0.064-0.016
			c0.046,0.004,0.149,0.021,0.309,0.053c0.16,0.031,0.263,0.055,0.314,0.073c0.307-0.197,0.618-0.421,0.936-0.668
			c0.317-0.246,0.641-0.486,0.97-0.719c0.33-0.233,0.669-0.444,1.021-0.636c0.35-0.188,0.709-0.325,1.08-0.41
			c0.257-0.057,0.487-0.098,0.692-0.121c0.206-0.022,0.413-0.034,0.625-0.035c0.21,0,0.438,0.012,0.686,0.034
			c0.245,0.024,0.531,0.056,0.855,0.093c0.171,0.088,0.338,0.168,0.498,0.241c0.161,0.075,0.311,0.171,0.452,0.288
			c0.141,0.117,0.263,0.27,0.367,0.456c0.105,0.188,0.188,0.437,0.249,0.749c-0.299,0.109-0.661,0.159-1.079,0.147
			c-0.42-0.011-0.869-0.033-1.348-0.067c-0.478-0.034-0.963-0.049-1.457-0.047c-0.493,0.004-0.956,0.069-1.387,0.2
			c-0.43,0.13-0.811,0.353-1.139,0.662c-0.331,0.31-0.574,0.749-0.734,1.313c0.028,0.598,0.126,1.163,0.294,1.698
			c0.167,0.533,0.376,1.045,0.627,1.535c0.251,0.492,0.53,0.973,0.839,1.442c0.308,0.47,0.608,0.942,0.902,1.418
			c0.292,0.475,0.565,0.953,0.823,1.438c0.256,0.484,0.465,0.985,0.63,1.507c0.053,0.205,0.006,0.439-0.139,0.705
			C242.48,341.506,242.286,341.667,242.043,341.721z"/>
		<path fill="#FAFAFC" d="M248.034,335.211c-0.065-0.343-0.063-0.749,0.009-1.221c0.071-0.471,0.234-0.943,0.489-1.42
			c0.254-0.478,0.614-0.935,1.08-1.373c0.465-0.439,1.057-0.798,1.775-1.071c0.718-0.274,1.568-0.439,2.545-0.489
			c0.979-0.051,2.103,0.064,3.368,0.352c-0.003-0.015-0.029-0.111-0.078-0.289s-0.075-0.273-0.078-0.288
			c-0.101-0.524-0.346-1.029-0.734-1.514c-0.39-0.484-0.849-0.905-1.38-1.262c-0.53-0.356-1.087-0.622-1.665-0.797
			c-0.579-0.174-1.106-0.217-1.58-0.129c-0.202,0.037-0.365,0.104-0.495,0.197c-0.129,0.094-0.25,0.193-0.36,0.3
			c-0.109,0.106-0.22,0.203-0.326,0.294c-0.108,0.091-0.247,0.152-0.417,0.185c-0.029,0.005-0.053,0.003-0.069-0.01
			c-0.018-0.012-0.042-0.022-0.075-0.031c-0.05-0.021-0.115-0.061-0.192-0.114c-0.08-0.055-0.122-0.089-0.125-0.104
			c-0.079-0.355-0.083-0.677-0.013-0.962c0.072-0.284,0.196-0.528,0.376-0.733c0.181-0.205,0.403-0.376,0.666-0.511
			c0.264-0.136,0.554-0.232,0.872-0.292c0.799-0.057,1.588,0.056,2.363,0.336c0.775,0.28,1.515,0.683,2.218,1.206
			c0.704,0.522,1.354,1.151,1.947,1.883c0.595,0.732,1.115,1.515,1.564,2.341c0.449,0.828,0.806,1.683,1.073,2.563
			c0.265,0.881,0.422,1.735,0.469,2.563c-0.015,0.002-0.07,0.007-0.168,0.014c-0.099,0.007-0.2,0.014-0.304,0.021
			c-0.106,0.009-0.251,0.012-0.438,0.008c-0.559-0.889-1.137-1.588-1.729-2.097s-1.16-0.886-1.698-1.128
			c-0.54-0.244-1.032-0.396-1.472-0.459c-0.442-0.063-0.795-0.103-1.061-0.117c-0.282,0.05-0.609,0.131-0.987,0.245
			c-0.376,0.114-0.761,0.257-1.153,0.432c-0.393,0.172-0.777,0.38-1.154,0.62c-0.375,0.242-0.702,0.514-0.975,0.813
			c-0.275,0.302-0.475,0.638-0.6,1.011c-0.125,0.371-0.14,0.773-0.041,1.202c0.108,0.475,0.379,0.839,0.81,1.096
			s0.911,0.439,1.443,0.55c0.531,0.109,1.062,0.162,1.594,0.159c0.535-0.004,0.958-0.032,1.275-0.087
			c0.506-0.089,1-0.205,1.484-0.349c0.481-0.145,0.955-0.296,1.421-0.457c0.467-0.161,0.935-0.311,1.405-0.445
			c0.472-0.138,0.949-0.241,1.432-0.315c0.042-0.006,0.107-0.017,0.196-0.029c0.09-0.013,0.184-0.024,0.283-0.03
			c0.098-0.008,0.19-0.018,0.28-0.031c0.091-0.014,0.149-0.022,0.177-0.025c0.164,0.036,0.266,0.113,0.308,0.232
			c0.042,0.117,0.074,0.236,0.095,0.357c0.021,0.12-0.073,0.269-0.282,0.446c-0.208,0.179-0.481,0.365-0.819,0.564
			c-0.337,0.196-0.715,0.401-1.133,0.613c-0.419,0.213-0.827,0.404-1.223,0.576c-0.396,0.172-0.761,0.32-1.095,0.444
			c-0.335,0.125-0.583,0.202-0.747,0.229c-0.762,0.129-1.58,0.196-2.453,0.204c-0.875,0.01-1.707-0.102-2.502-0.33
			c-0.796-0.228-1.502-0.622-2.118-1.182C248.702,337.019,248.272,336.232,248.034,335.211z"/>
		<path fill="#FAFAFC" d="M261.194,327.126c0.002-0.062,0.018-0.146,0.043-0.25c0.026-0.104,0.062-0.211,0.108-0.317
			c0.048-0.108,0.101-0.201,0.162-0.279c0.058-0.079,0.131-0.124,0.217-0.137c0.015-0.001,0.025-0.001,0.035,0.006
			c0.009,0.007,0.028,0.008,0.057,0.004c0.021-0.003,0.043-0.007,0.064-0.01c0.483,0.162,0.903,0.43,1.26,0.806
			c0.354,0.374,0.682,0.81,0.981,1.302c0.299,0.493,0.592,1.022,0.88,1.587c0.285,0.566,0.59,1.125,0.916,1.68
			c0.322,0.553,0.683,1.08,1.081,1.578c0.396,0.501,0.869,0.934,1.418,1.301c0.076-0.629,0.156-1.241,0.237-1.841
			c0.083-0.598,0.19-1.202,0.322-1.814c0.132-0.611,0.3-1.25,0.498-1.917c0.2-0.667,0.442-1.38,0.728-2.141
			c0.425-0.266,0.779-0.433,1.053-0.502c0.273-0.069,0.473-0.056,0.593,0.039c0.123,0.096,0.161,0.263,0.122,0.499
			c-0.042,0.236-0.164,0.521-0.364,0.853c-0.125,0.154-0.254,0.497-0.391,1.031c-0.136,0.534-0.27,1.157-0.399,1.869
			c-0.131,0.711-0.269,1.46-0.414,2.242s-0.302,1.502-0.469,2.155c-0.168,0.654-0.348,1.197-0.543,1.63
			c-0.197,0.434-0.413,0.648-0.651,0.645c-0.247,0.029-0.563-0.153-0.952-0.547c-0.388-0.394-0.819-0.91-1.292-1.546
			c-0.475-0.636-0.965-1.342-1.477-2.116c-0.51-0.776-1.005-1.54-1.485-2.293c-0.48-0.753-0.926-1.443-1.342-2.072
			C261.776,327.942,261.444,327.461,261.194,327.126z"/>
		<path fill="#FAFAFC" d="M273.218,328.333c-0.136-1.057-0.12-2.085,0.05-3.087c0.169-1.003,0.494-1.901,0.977-2.693
			c0.481-0.793,1.115-1.448,1.897-1.964c0.784-0.515,1.721-0.821,2.808-0.911c0.657,0.039,1.238,0.18,1.742,0.421
			s0.931,0.563,1.277,0.967c0.348,0.402,0.615,0.875,0.804,1.415c0.187,0.539,0.301,1.119,0.343,1.738
			c0.065,0.742-0.079,1.425-0.435,2.048c-0.353,0.621-0.815,1.154-1.382,1.599c-0.565,0.444-1.189,0.801-1.868,1.071
			c-0.68,0.27-1.323,0.432-1.932,0.482c-0.226,0.021-0.457,0.036-0.69,0.05c-0.235,0.013-0.449-0.012-0.643-0.071
			c-0.192-0.06-0.355-0.17-0.487-0.327c-0.135-0.159-0.221-0.399-0.259-0.721c-0.013-0.107-0.009-0.197,0.011-0.269
			c0.019-0.072,0.092-0.129,0.217-0.172c0.125-0.043,0.315-0.063,0.575-0.064c0.259,0,0.629,0.024,1.109,0.077
			c0.256-0.023,0.628-0.152,1.122-0.386c0.493-0.235,0.984-0.526,1.474-0.875c0.491-0.349,0.913-0.733,1.261-1.155
			c0.351-0.422,0.508-0.832,0.47-1.234s-0.143-0.799-0.311-1.19c-0.169-0.393-0.395-0.733-0.672-1.022
			c-0.278-0.29-0.598-0.515-0.962-0.672c-0.361-0.158-0.754-0.203-1.173-0.137c-0.68,0.118-1.278,0.37-1.795,0.75
			c-0.515,0.38-0.937,0.847-1.267,1.398c-0.329,0.55-0.558,1.159-0.687,1.822c-0.131,0.665-0.152,1.334-0.069,2.009
			c0.063,0.521,0.139,1.052,0.227,1.595c0.088,0.542,0.223,1.064,0.404,1.567c0.182,0.502,0.436,0.972,0.763,1.407
			c0.326,0.437,0.766,0.813,1.316,1.131c0.55,0.318,1.226,0.565,2.032,0.746c0.802,0.178,1.784,0.259,2.944,0.246
			c1.644-0.23,3.292-0.445,4.943-0.645c-0.274,0.465-0.623,0.854-1.045,1.171c-0.422,0.317-0.879,0.577-1.369,0.783
			c-0.49,0.205-0.984,0.361-1.481,0.469c-0.498,0.107-0.96,0.175-1.388,0.203c-1.063,0.069-2.085-0.052-3.071-0.365
			c-0.987-0.312-1.878-0.792-2.676-1.442c-0.799-0.65-1.474-1.458-2.029-2.429C273.741,330.697,273.38,329.587,273.218,328.333z"/>
		<path fill="#FAFAFC" d="M289.455,335.296c-0.287-1.472-0.505-2.94-0.651-4.407c-0.146-1.468-0.268-2.934-0.359-4.395
			c-0.095-1.461-0.174-2.919-0.238-4.374c-0.065-1.455-0.157-2.912-0.278-4.371c-0.012-0.171,0.038-0.29,0.153-0.358
			c0.113-0.067,0.246-0.104,0.394-0.112c0.178-0.009,0.342,0.054,0.493,0.187c0.15,0.134,0.278,0.296,0.389,0.485
			c0.109,0.19,0.195,0.386,0.261,0.585c0.065,0.2,0.103,0.362,0.111,0.486c0.311,2.967,0.54,5.439,0.695,7.416
			s0.249,3.572,0.285,4.789c0.036,1.216,0.028,2.118-0.021,2.705c-0.051,0.586-0.136,0.987-0.254,1.201
			c-0.119,0.216-0.264,0.307-0.432,0.273C289.834,335.373,289.651,335.336,289.455,335.296z"/>
		<path fill="#FAFAFC" d="M303.02,320.31c-0.116-0.928-0.246-1.716-0.391-2.359c-0.145-0.645-0.22-1.18-0.219-1.604
			c-0.001-0.424,0.116-0.75,0.354-0.978c0.234-0.227,0.674-0.387,1.318-0.477c0.032,0.221,0.086,0.623,0.16,1.204
			c0.075,0.583,0.153,1.248,0.232,1.996c0.082,0.749,0.167,1.528,0.255,2.34s0.176,1.553,0.268,2.223
			c0.093,0.67,0.181,1.223,0.27,1.657s0.177,0.637,0.263,0.607c0.348,0.007,0.69-0.049,1.032-0.167
			c0.339-0.118,0.698-0.173,1.073-0.162c0.58,0.017,1.198,0.093,1.855,0.234c0.657,0.141,1.308,0.344,1.953,0.607
			c0.646,0.265,1.262,0.593,1.851,0.987c0.587,0.394,1.098,0.85,1.531,1.366c0.437,0.516,0.775,1.096,1.021,1.738
			c0.247,0.643,0.352,1.345,0.319,2.104c-0.04,0.983-0.287,1.75-0.736,2.301c-0.451,0.552-1.003,0.957-1.659,1.221
			c-0.658,0.262-1.365,0.412-2.123,0.453c-0.759,0.04-1.478,0.047-2.157,0.018c-0.917-0.04-1.681-0.197-2.296-0.478
			c-0.616-0.281-1.12-0.655-1.509-1.122c-0.391-0.468-0.689-1.01-0.894-1.628c-0.205-0.62-0.359-1.291-0.462-2.018
			c-0.103-0.726-0.179-1.483-0.228-2.27c-0.048-0.787-0.112-1.576-0.191-2.363c-0.016-0.142-0.065-0.477-0.148-1.006
			c-0.085-0.526-0.183-1.099-0.291-1.713c-0.109-0.614-0.208-1.186-0.296-1.712C303.088,320.785,303.036,320.451,303.02,320.31z
			 M305.859,328.613c-0.2,0.909-0.152,1.706,0.135,2.392c0.289,0.685,0.71,1.248,1.26,1.691c0.552,0.443,1.185,0.762,1.902,0.956
			c0.717,0.194,1.429,0.254,2.137,0.177c0.709-0.077,1.355-0.296,1.942-0.66c0.587-0.363,1.027-0.885,1.32-1.566
			c0.021-0.569-0.078-1.092-0.298-1.563c-0.219-0.472-0.512-0.9-0.88-1.285c-0.367-0.384-0.791-0.717-1.272-1
			c-0.479-0.283-0.974-0.522-1.48-0.717c-0.506-0.193-1.006-0.343-1.502-0.447c-0.495-0.103-0.936-0.16-1.324-0.172
			c-0.633-0.019-1.115,0.171-1.446,0.564C306.021,327.376,305.859,327.92,305.859,328.613z"/>
		<path fill="#FAFAFC" d="M327.554,332.359c-0.461,0.222-0.862,0.513-1.204,0.869c-0.34,0.357-0.683,0.699-1.025,1.025
			s-0.717,0.597-1.119,0.812c-0.402,0.217-0.896,0.296-1.48,0.24c-0.669-0.061-1.264-0.282-1.787-0.662
			c-0.523-0.382-0.981-0.865-1.371-1.455c-0.39-0.589-0.723-1.251-0.998-1.988c-0.275-0.736-0.496-1.488-0.661-2.256
			c-0.164-0.768-0.282-1.519-0.352-2.254c-0.069-0.736-0.091-1.398-0.066-1.983c-0.112-1.152-0.051-2.046,0.188-2.683
			c0.24-0.637,0.515-1.033,0.824-1.188c0.309-0.155,0.569-0.095,0.777,0.183c0.208,0.276,0.223,0.744,0.045,1.399
			c-0.033,0.077-0.068,0.205-0.106,0.387c-0.039,0.179-0.072,0.365-0.104,0.553c-0.031,0.19-0.062,0.366-0.092,0.531
			c-0.029,0.165-0.045,0.279-0.049,0.343c-0.021,0.444-0.005,0.97,0.045,1.579c0.05,0.607,0.142,1.248,0.272,1.918
			c0.132,0.672,0.305,1.337,0.52,1.999c0.214,0.662,0.477,1.261,0.785,1.797c0.311,0.536,0.671,0.98,1.088,1.337
			c0.415,0.356,0.888,0.559,1.424,0.607c0.336,0.033,0.73-0.118,1.187-0.451c0.458-0.331,0.898-0.735,1.328-1.213
			c0.43-0.479,0.802-0.982,1.118-1.51c0.314-0.528,0.495-0.977,0.54-1.341c0.018-0.206,0.049-0.556,0.097-1.048
			c0.047-0.493,0.094-1.015,0.138-1.562c0.045-0.55,0.082-1.071,0.115-1.565c0.031-0.493,0.056-0.837,0.071-1.027
			c0.134-0.212,0.272-0.366,0.413-0.464c0.139-0.099,0.312-0.137,0.517-0.115c0.234,0.024,0.415,0.216,0.538,0.574
			c0.124,0.358,0.211,0.807,0.259,1.341c0.05,0.536,0.063,1.117,0.046,1.742c-0.02,0.626-0.044,1.226-0.074,1.802
			c-0.03,0.575-0.058,1.083-0.083,1.521c-0.025,0.44-0.024,0.734,0.005,0.882c0.061,0.44,0.158,0.936,0.293,1.482
			c0.134,0.548,0.261,1.082,0.38,1.604c0.12,0.521,0.223,0.998,0.308,1.428c0.084,0.43,0.115,0.748,0.095,0.955
			c-0.032,0.319-0.131,0.5-0.296,0.544c-0.166,0.044-0.367,0.052-0.603,0.022c-0.29-0.035-0.498-0.145-0.621-0.328
			c-0.122-0.184-0.207-0.411-0.252-0.682c-0.045-0.272-0.07-0.572-0.075-0.903c-0.005-0.33-0.034-0.667-0.088-1.011
			c-0.055-0.345-0.145-0.673-0.273-0.985C328.058,332.851,327.847,332.583,327.554,332.359z"/>
		<path fill="#FAFAFC" d="M332.017,330.366c0.095-0.939,0.351-1.833,0.771-2.675c0.422-0.845,0.954-1.57,1.599-2.175
			c0.646-0.604,1.371-1.06,2.176-1.364c0.805-0.306,1.635-0.398,2.481-0.277c0.382,0.054,0.788,0.162,1.223,0.323
			c0.433,0.161,0.831,0.38,1.188,0.654c0.359,0.274,0.641,0.607,0.85,0.999c0.206,0.391,0.271,0.85,0.2,1.377
			c-0.014,0.096-0.063,0.268-0.148,0.515c-0.086,0.247-0.187,0.492-0.3,0.735c-0.114,0.242-0.235,0.456-0.362,0.639
			c-0.127,0.184-0.235,0.27-0.321,0.256c0.138-1.006,0.002-1.883-0.41-2.63c-0.411-0.747-1.107-1.192-2.083-1.333
			c-0.74-0.107-1.419-0.026-2.032,0.238c-0.612,0.264-1.145,0.646-1.596,1.145c-0.45,0.499-0.812,1.084-1.088,1.75
			c-0.275,0.667-0.449,1.36-0.526,2.077c-0.104,0.972-0.048,1.801,0.171,2.484c0.219,0.685,0.545,1.255,0.983,1.714
			c0.438,0.458,0.962,0.828,1.573,1.113c0.612,0.285,1.26,0.513,1.947,0.685s1.389,0.304,2.101,0.396
			c0.713,0.093,1.398,0.179,2.058,0.259c0.054,0.01,0.142,0.066,0.263,0.169c0.121,0.102,0.199,0.174,0.236,0.213
			c-0.004,0.024-0.008,0.048-0.012,0.072c-0.005,0.031-0.005,0.057,0,0.074c0.004,0.016,0.006,0.033,0.004,0.049
			c-0.036,0.239-0.164,0.426-0.383,0.56c-0.22,0.133-0.483,0.229-0.797,0.28c-0.312,0.053-0.647,0.073-1.006,0.062
			c-0.36-0.011-0.709-0.031-1.053-0.063c-0.341-0.032-0.644-0.067-0.905-0.109c-0.263-0.041-0.449-0.071-0.561-0.09
			c-1.062-0.167-2.006-0.446-2.833-0.842c-0.826-0.397-1.509-0.924-2.049-1.589c-0.542-0.663-0.934-1.467-1.178-2.41
			C331.953,332.702,331.892,331.609,332.017,330.366z"/>
		<path fill="#FAFAFC" d="M345.014,338.658c0.008-0.048,0.039-0.156,0.095-0.328c0.056-0.17,0.113-0.356,0.174-0.559
			c0.062-0.202,0.118-0.394,0.175-0.571c0.059-0.18,0.09-0.292,0.098-0.34c0.006-0.032,0.022-0.14,0.052-0.324
			c0.029-0.184,0.065-0.395,0.11-0.633s0.087-0.481,0.126-0.728c0.039-0.248,0.07-0.443,0.093-0.587
			c0.021-0.128,0.048-0.3,0.081-0.516c0.033-0.215,0.063-0.431,0.091-0.648c0.026-0.218,0.053-0.404,0.077-0.564
			c0.026-0.159,0.04-0.256,0.046-0.287c0.096-0.984,0.147-2.038,0.149-3.161c0.003-1.121-0.008-2.247-0.031-3.374
			c-0.025-1.125-0.047-2.222-0.063-3.288c-0.019-1.066,0-2.045,0.052-2.935c0.253-0.481,0.476-0.621,0.667-0.417
			c0.191,0.203,0.351,0.618,0.479,1.246c0.128,0.627,0.231,1.402,0.31,2.325c0.077,0.923,0.13,1.855,0.155,2.795
			s0.038,1.829,0.039,2.667c0.002,0.839-0.001,1.487,0,1.947c0.022,0.036,0.087,0.07,0.193,0.098
			c0.106,0.026,0.173,0.044,0.202,0.05c0.37,0.068,0.726-0.002,1.062-0.209c0.337-0.208,0.668-0.483,0.993-0.824
			c0.324-0.341,0.648-0.716,0.971-1.124c0.324-0.407,0.659-0.78,1-1.117c0.344-0.337,0.703-0.604,1.078-0.803
			c0.375-0.199,0.78-0.253,1.217-0.165c0.263,0.053,0.41,0.178,0.441,0.375c0.032,0.197,0.011,0.412-0.062,0.646
			c-0.307,0.187-0.67,0.431-1.093,0.733c-0.421,0.303-0.87,0.639-1.345,1.008c-0.477,0.368-0.947,0.758-1.42,1.169
			c-0.472,0.412-0.896,0.819-1.272,1.226c-0.377,0.405-0.697,0.802-0.959,1.188s-0.42,0.74-0.473,1.058
			c-0.077,0.464-0.015,0.917,0.188,1.359c0.199,0.442,0.483,0.86,0.85,1.255c0.365,0.395,0.788,0.761,1.271,1.099
			c0.479,0.337,0.966,0.643,1.458,0.911c0.49,0.27,0.957,0.495,1.398,0.674c0.442,0.18,0.808,0.31,1.095,0.39
			c0.158,0.085,0.227,0.208,0.209,0.371c-0.018,0.164-0.043,0.324-0.074,0.484c-0.063,0.318-0.195,0.534-0.398,0.647
			c-0.201,0.113-0.433,0.175-0.692,0.184s-0.522-0.02-0.79-0.086c-0.266-0.066-0.495-0.12-0.688-0.162
			c-0.411-0.088-0.849-0.335-1.311-0.737c-0.464-0.404-0.907-0.829-1.33-1.279c-0.422-0.448-0.801-0.858-1.134-1.229
			c-0.331-0.371-0.569-0.568-0.709-0.595c-0.292-0.056-0.514,0.07-0.666,0.379c-0.151,0.31-0.278,0.65-0.384,1.026
			c-0.104,0.375-0.226,0.718-0.362,1.03c-0.137,0.312-0.343,0.44-0.619,0.389c-0.233-0.044-0.442-0.16-0.624-0.352
			C345.026,339.256,344.961,338.993,345.014,338.658z"/>
		<path fill="#FAFAFC" d="M357.094,333.216c0.217-1.101,0.572-2.126,1.066-3.074c0.495-0.948,1.104-1.742,1.833-2.38
			c0.728-0.638,1.557-1.088,2.483-1.351c0.929-0.262,1.934-0.263,3.017-0.001c0.623,0.252,1.138,0.58,1.547,0.986
			c0.408,0.405,0.714,0.865,0.917,1.382s0.306,1.074,0.31,1.675c0.003,0.601-0.077,1.218-0.242,1.852
			c-0.181,0.765-0.549,1.399-1.098,1.908s-1.171,0.892-1.866,1.152c-0.694,0.262-1.417,0.417-2.162,0.467
			c-0.748,0.052-1.422,0.004-2.028-0.141c-0.225-0.054-0.452-0.112-0.684-0.176s-0.429-0.155-0.597-0.278
			c-0.166-0.123-0.287-0.284-0.362-0.486c-0.078-0.201-0.082-0.47-0.013-0.805c0.023-0.112,0.056-0.199,0.1-0.266
			c0.043-0.065,0.133-0.099,0.266-0.102c0.135-0.002,0.327,0.038,0.578,0.122c0.25,0.083,0.6,0.229,1.046,0.436
			c0.257,0.061,0.657,0.053,1.213-0.022c0.554-0.076,1.125-0.208,1.714-0.398c0.591-0.188,1.126-0.438,1.604-0.746
			c0.478-0.31,0.768-0.669,0.862-1.083c0.097-0.414,0.127-0.846,0.093-1.293c-0.035-0.446-0.14-0.86-0.312-1.241
			c-0.175-0.38-0.409-0.707-0.709-0.983c-0.298-0.275-0.662-0.448-1.09-0.518c-0.697-0.101-1.358-0.044-1.983,0.169
			c-0.623,0.215-1.186,0.544-1.687,0.989c-0.501,0.444-0.923,0.979-1.268,1.603c-0.346,0.621-0.586,1.285-0.729,1.987
			c-0.111,0.542-0.213,1.099-0.308,1.67s-0.138,1.137-0.128,1.699c0.009,0.562,0.1,1.114,0.271,1.656
			c0.172,0.543,0.471,1.061,0.899,1.559c0.426,0.495,0.997,0.964,1.716,1.402c0.72,0.44,1.642,0.839,2.769,1.202
			c1.668,0.302,3.336,0.62,5.003,0.956c-0.42,0.374-0.887,0.652-1.4,0.833c-0.514,0.179-1.042,0.293-1.585,0.339
			c-0.544,0.046-1.073,0.043-1.59-0.01c-0.52-0.053-0.988-0.135-1.411-0.246c-1.053-0.274-2-0.727-2.851-1.358
			c-0.853-0.632-1.554-1.4-2.11-2.311s-0.942-1.939-1.157-3.089C356.816,335.754,356.835,334.525,357.094,333.216z"/>
		<path fill="#FAFAFC" d="M375.985,335.544c-0.143-0.041-0.403-0.123-0.784-0.244c-0.382-0.119-0.766-0.273-1.151-0.462
			c-0.385-0.188-0.722-0.411-1.004-0.671c-0.286-0.259-0.394-0.55-0.328-0.871c0.025-0.096,0.071-0.22,0.141-0.37
			c0.07-0.152,0.183-0.205,0.341-0.161c1.01,0.19,2.02,0.387,3.029,0.589c0.294-0.754,0.523-1.377,0.687-1.868
			c0.162-0.492,0.295-0.958,0.397-1.399s0.198-0.905,0.289-1.394c0.091-0.486,0.23-1.113,0.418-1.881
			c0.037-0.142,0.098-0.249,0.18-0.32c0.081-0.07,0.174-0.115,0.275-0.139c0.099-0.022,0.204-0.025,0.312-0.013
			c0.106,0.015,0.195,0.033,0.27,0.054c0.117,0.034,0.229,0.11,0.332,0.226c0.103,0.116,0.186,0.252,0.246,0.408
			c0.062,0.153,0.101,0.312,0.121,0.473c0.02,0.159,0.013,0.303-0.022,0.43c-0.459,2.001-0.923,4.001-1.392,6.001
			c0.803,0.285,1.605,0.574,2.405,0.868c0.337,0.07,0.617,0.242,0.844,0.512c0.224,0.271,0.273,0.646,0.148,1.124
			c-0.306,0.198-0.626,0.274-0.96,0.229c-0.334-0.045-0.677-0.128-1.027-0.245c-0.353-0.118-0.698-0.226-1.041-0.322
			c-0.343-0.098-0.667-0.088-0.977,0.023c-0.035,0.128-0.125,0.479-0.269,1.055c-0.146,0.575-0.315,1.255-0.512,2.039
			c-0.197,0.784-0.405,1.625-0.628,2.521c-0.221,0.897-0.429,1.727-0.621,2.486s-0.358,1.407-0.494,1.941
			c-0.137,0.535-0.214,0.835-0.232,0.899c-0.502,0.153-0.831,0.021-0.993-0.4c-0.161-0.421-0.226-1-0.191-1.739
			c0.033-0.737,0.145-1.576,0.336-2.515c0.19-0.939,0.403-1.862,0.644-2.77c0.238-0.908,0.469-1.73,0.692-2.471
			C375.689,336.426,375.861,335.886,375.985,335.544z"/>
		<path fill="#FAFAFC" d="M389.947,352.004c0.333-1.562,0.733-3.097,1.2-4.601c0.466-1.503,0.955-2.994,1.471-4.469
			c0.514-1.477,1.039-2.942,1.578-4.4c0.538-1.458,1.052-2.929,1.54-4.414c0.059-0.173,0.156-0.271,0.292-0.291
			c0.136-0.021,0.277-0.005,0.421,0.05c0.173,0.063,0.303,0.189,0.391,0.383c0.089,0.192,0.146,0.403,0.171,0.636
			c0.026,0.23,0.027,0.457,0.006,0.682c-0.021,0.223-0.053,0.397-0.096,0.523c-0.929,3.044-1.731,5.57-2.398,7.578
			s-1.237,3.617-1.705,4.828c-0.468,1.212-0.848,2.096-1.136,2.652c-0.29,0.557-0.535,0.918-0.736,1.081
			c-0.203,0.162-0.378,0.192-0.523,0.091C390.275,352.235,390.118,352.124,389.947,352.004z"/>
		<path fill="#FAFAFC" d="M399.047,334.478c0.09-0.252,0.21-0.393,0.368-0.423c0.158-0.028,0.345-0.001,0.562,0.081
			c0.134,0.034,0.277,0.192,0.432,0.474c0.152,0.281,0.259,0.577,0.319,0.888c0.06,0.309,0.058,0.58-0.012,0.812
			c-0.067,0.233-0.261,0.314-0.577,0.245c-0.05-0.02-0.1-0.038-0.148-0.058c-0.287-0.11-0.518-0.218-0.692-0.319
			c-0.173-0.103-0.297-0.227-0.368-0.369s-0.099-0.318-0.083-0.526C398.863,335.077,398.932,334.808,399.047,334.478z
			 M397.676,342.919c0.034-0.094,0.093-0.254,0.174-0.481c0.083-0.227,0.172-0.465,0.271-0.713c0.098-0.248,0.186-0.486,0.269-0.714
			c0.083-0.229,0.141-0.39,0.175-0.483c0.148-0.675,0.439-0.928,0.876-0.756c0.197,0.076,0.342,0.191,0.431,0.343
			c0.09,0.153,0.15,0.361,0.184,0.624c-0.458,1.074-0.807,2.144-1.048,3.205c-0.241,1.063-0.455,2.123-0.644,3.182
			c-0.19,1.058-0.396,2.117-0.617,3.183c-0.221,1.064-0.536,2.137-0.944,3.215c-0.107,0.281-0.295,0.537-0.56,0.771
			c-0.265,0.232-0.55,0.287-0.855,0.162c-0.226-0.093-0.335-0.408-0.335-0.947c0.001-0.541,0.074-1.194,0.222-1.962
			c0.145-0.771,0.334-1.609,0.567-2.522c0.232-0.912,0.471-1.778,0.714-2.597c0.243-0.817,0.47-1.549,0.68-2.192
			C397.444,343.593,397.591,343.155,397.676,342.919z"/>
		<path fill="#FAFAFC" d="M398.709,351.438c0.195-0.063,0.355-0.093,0.478-0.086c0.124,0.007,0.266,0.042,0.427,0.11
			c0.162,0.068,0.301,0.186,0.415,0.352c0.115,0.166,0.218,0.347,0.308,0.539c0.089,0.192,0.178,0.384,0.267,0.576
			c0.089,0.193,0.197,0.362,0.327,0.51c0.361,0.428,0.651,0.773,0.868,1.032c0.216,0.259,0.429,0.48,0.638,0.662
			c0.207,0.184,0.452,0.351,0.733,0.504c0.282,0.152,0.669,0.339,1.159,0.559c0.369,0.166,0.815,0.372,1.334,0.619
			c0.519,0.246,1.039,0.425,1.561,0.537c0.52,0.113,1.015,0.098,1.482-0.044c0.466-0.144,0.835-0.524,1.104-1.141
			c0.274-0.597,0.339-1.135,0.191-1.611c-0.148-0.478-0.432-0.922-0.854-1.328c-0.422-0.408-0.934-0.795-1.536-1.159
			c-0.601-0.365-1.217-0.735-1.844-1.114c-0.629-0.379-1.234-0.785-1.817-1.22s-1.063-0.927-1.437-1.475
			c-0.375-0.55-0.612-1.174-0.709-1.877c-0.097-0.7,0.021-1.515,0.358-2.442c0.359-0.61,0.864-1.048,1.516-1.312
			c0.652-0.263,1.358-0.374,2.114-0.326c0.756,0.046,1.511,0.222,2.26,0.525c0.747,0.305,1.391,0.711,1.926,1.212
			c0.535,0.503,0.915,1.081,1.136,1.733c0.222,0.652,0.188,1.339-0.098,2.058c-0.136,0.438-0.309,0.769-0.519,0.997
			c-0.21,0.228-0.417,0.373-0.622,0.437c-0.206,0.063-0.389,0.054-0.55-0.027c-0.159-0.082-0.26-0.214-0.297-0.397
			c-0.038-0.182,0.004-0.403,0.128-0.659c0.122-0.258,0.36-0.538,0.715-0.838c0.092-0.419,0.015-0.824-0.234-1.21
			c-0.252-0.387-0.595-0.728-1.033-1.02c-0.436-0.293-0.924-0.528-1.465-0.708c-0.541-0.178-1.061-0.277-1.564-0.301
			c-0.503-0.021-0.941,0.047-1.319,0.205c-0.377,0.16-0.614,0.428-0.711,0.804c-0.243,0.624-0.271,1.175-0.089,1.651
			c0.182,0.477,0.497,0.92,0.941,1.331c0.446,0.41,0.983,0.798,1.613,1.167c0.629,0.367,1.273,0.744,1.936,1.135
			c0.66,0.389,1.289,0.803,1.888,1.245c0.598,0.441,1.085,0.933,1.468,1.475c0.381,0.542,0.609,1.148,0.686,1.819
			c0.077,0.671-0.073,1.43-0.449,2.279c-0.279,0.631-0.665,1.11-1.151,1.437s-1.011,0.543-1.571,0.647
			c-0.562,0.107-1.126,0.114-1.691,0.025c-0.567-0.09-1.081-0.241-1.539-0.451c-0.445-0.207-0.926-0.432-1.441-0.675
			s-1.029-0.517-1.543-0.818c-0.516-0.304-1.016-0.645-1.5-1.021c-0.484-0.377-0.909-0.807-1.268-1.289
			c-0.361-0.482-0.645-1.021-0.848-1.615C398.778,352.861,398.687,352.188,398.709,351.438z"/>
		<path fill="#FAFAFC" d="M419.066,352.503c-0.137-0.067-0.385-0.196-0.748-0.386c-0.363-0.188-0.724-0.412-1.079-0.671
			c-0.356-0.258-0.655-0.543-0.896-0.856c-0.242-0.312-0.302-0.627-0.18-0.94c0.042-0.093,0.109-0.211,0.207-0.351
			c0.097-0.142,0.219-0.176,0.37-0.104c0.984,0.37,1.968,0.746,2.95,1.129c0.426-0.714,0.764-1.305,1.013-1.774
			c0.25-0.471,0.463-0.919,0.643-1.35c0.18-0.43,0.356-0.884,0.532-1.362c0.176-0.477,0.424-1.089,0.746-1.833
			c0.062-0.138,0.141-0.236,0.235-0.294c0.094-0.057,0.196-0.087,0.301-0.092c0.105-0.006,0.212,0.01,0.317,0.043
			c0.105,0.032,0.191,0.065,0.263,0.101c0.111,0.055,0.212,0.151,0.296,0.287c0.083,0.136,0.144,0.287,0.177,0.456
			c0.035,0.167,0.049,0.334,0.04,0.501c-0.007,0.165-0.039,0.31-0.096,0.433c-0.808,1.948-1.62,3.896-2.438,5.842
			c0.76,0.431,1.518,0.864,2.274,1.303c0.328,0.133,0.581,0.355,0.762,0.669c0.181,0.314,0.166,0.703-0.043,1.167
			c-0.344,0.146-0.679,0.167-1.008,0.062c-0.329-0.105-0.659-0.249-0.994-0.431c-0.334-0.182-0.664-0.352-0.994-0.51
			c-0.326-0.159-0.657-0.207-0.987-0.146c-0.058,0.121-0.208,0.463-0.454,1.021c-0.244,0.559-0.533,1.218-0.866,1.979
			c-0.334,0.76-0.689,1.576-1.068,2.445c-0.377,0.871-0.729,1.675-1.055,2.412s-0.604,1.364-0.833,1.883
			c-0.231,0.518-0.36,0.81-0.39,0.87c-0.532,0.068-0.842-0.125-0.931-0.579c-0.092-0.456-0.057-1.055,0.107-1.798
			c0.159-0.742,0.417-1.574,0.771-2.492c0.354-0.92,0.728-1.818,1.126-2.695c0.397-0.88,0.772-1.673,1.125-2.385
			C418.615,353.345,418.883,352.828,419.066,352.503z"/>
		<path fill="#FAFAFC" d="M431.02,359.48c0.252,0.144,0.518,0.303,0.795,0.48c0.277,0.177,0.515,0.382,0.712,0.613
			c0.197,0.23,0.325,0.491,0.386,0.782c0.062,0.291-0.005,0.617-0.198,0.979c-0.226,0.421-0.51,0.532-0.85,0.335
			c-0.381-0.22-0.701-0.478-0.965-0.775c-0.263-0.297-0.6-0.562-1.007-0.793c-0.516-0.291-1.042-0.542-1.578-0.753
			s-1.083-0.41-1.639-0.599s-1.101-0.384-1.639-0.587c-0.538-0.204-1.065-0.443-1.583-0.718c0.24-0.487,0.527-0.826,0.862-1.013
			c0.335-0.186,0.705-0.276,1.107-0.273c0.404,0.006,0.824,0.087,1.264,0.247c0.437,0.159,0.873,0.349,1.308,0.567
			c0.434,0.219,0.856,0.438,1.267,0.655c0.409,0.218,0.786,0.395,1.13,0.527c0.105,0.06,0.193,0.104,0.265,0.134
			c0.07,0.03,0.138,0.064,0.204,0.102C430.928,359.428,430.98,359.458,431.02,359.48z"/>
	</g>
</g>
<path opacity="0.47" fill="none" stroke="#231F20" stroke-width="5" stroke-miterlimit="10" d="M106.552,213.433
	c0-107.692,79.674-194.835,178.136-194.835"/>
<path opacity="0.47" fill="none" stroke="#231F20" stroke-width="5" stroke-miterlimit="10" d="M476.405,212.247
	c-0.359-107.613-86.263-194.405-192.06-194.05"/>
</svg>
