<?xml version="1.0" encoding="utf-8"?>
<!-- Generator: Adobe Illustrator 15.0.0, SVG Export Plug-In . SVG Version: 6.00 Build 0)  -->
<!DOCTYPE svg PUBLIC "-//W3C//DTD SVG 1.1//EN" "http://www.w3.org/Graphics/SVG/1.1/DTD/svg11.dtd">
<svg version="1.1" id="Layer_1" xmlns="http://www.w3.org/2000/svg" xmlns:xlink="http://www.w3.org/1999/xlink" x="0px" y="0px"
	 width="841.89px" height="595.28px" viewBox="0 0 841.89 595.28" enable-background="new 0 0 841.89 595.28" xml:space="preserve">
<g>
	<g>
		<path d="M352.42,138.879c-2.126,0.551-4.332,1.017-6.623,1.403c-2.291,0.387-4.482,0.758-6.574,1.107
			c-0.261,0.115-0.479,0.141-0.653,0.079c-0.175-0.062-0.329-0.165-0.464-0.305s-0.236-0.292-0.303-0.452
			c-0.067-0.161-0.116-0.294-0.143-0.4c0.452-0.134,1.232-0.363,2.343-0.676c1.111-0.314,2.432-0.681,3.966-1.092
			c1.534-0.413,3.21-0.836,5.03-1.266c1.819-0.429,3.649-0.829,5.49-1.2s3.632-0.692,5.37-0.965
			c1.739-0.273,3.284-0.456,4.636-0.554c1.351-0.098,2.445-0.098,3.282-0.006c0.836,0.091,1.286,0.312,1.349,0.657
			c0.047,0.255,0.047,0.514,0.002,0.779c-0.045,0.266-0.262,0.439-0.647,0.523c-1.123,0.186-2.25,0.289-3.383,0.308
			c-1.133,0.02-2.265,0.059-3.396,0.115s-2.272,0.182-3.423,0.377c-1.152,0.195-2.289,0.576-3.406,1.142
			c0.247,1.112,0.595,2.303,1.042,3.573c0.447,1.271,0.94,2.563,1.476,3.879c0.536,1.315,1.091,2.622,1.665,3.92
			c0.573,1.298,1.121,2.518,1.643,3.659c0.132,0.29,0.322,0.561,0.571,0.814c0.249,0.252,0.501,0.496,0.756,0.728
			c0.255,0.233,0.489,0.476,0.702,0.728c0.212,0.252,0.349,0.523,0.41,0.81c0.042,0.198,0.003,0.363-0.116,0.495
			c-0.119,0.132-0.277,0.24-0.475,0.324c-0.198,0.084-0.409,0.153-0.635,0.207c-0.226,0.054-0.416,0.099-0.566,0.135
			c-0.582,0.139-1.077,0.059-1.484-0.238c-0.407-0.299-0.755-0.685-1.044-1.163c-0.29-0.478-0.528-0.982-0.716-1.512
			c-0.188-0.53-0.353-0.958-0.495-1.282c-0.533-1.249-1.023-2.471-1.467-3.665c-0.445-1.193-0.873-2.387-1.285-3.58
			c-0.413-1.192-0.811-2.402-1.198-3.629C353.271,141.427,352.858,140.168,352.42,138.879z"/>
		<path d="M373.792,154.937c-0.805-0.835-1.544-1.776-2.217-2.824c-0.673-1.048-1.286-2.116-1.838-3.207
			c-0.551-1.09-1.028-2.162-1.428-3.218c-0.399-1.056-0.719-2.02-0.958-2.893c-0.032-0.164-0.079-0.347-0.141-0.55
			s-0.109-0.415-0.14-0.635c-0.031-0.22-0.027-0.438,0.014-0.656c0.04-0.216,0.136-0.417,0.288-0.602
			c0.022-0.005,0.045-0.01,0.068-0.015c0.021-0.005,0.038-0.013,0.048-0.024c0.009-0.012,0.025-0.021,0.048-0.025
			c0.022-0.005,0.04-0.003,0.054,0.003c0.013,0.007,0.042,0.004,0.087-0.005c0.034-0.008,0.067-0.015,0.101-0.022
			c0.072,0.003,0.226,0.021,0.467,0.055c0.24,0.032,0.397,0.06,0.472,0.081c0.512-0.261,1.038-0.554,1.575-0.875
			c0.538-0.322,1.083-0.636,1.638-0.94c0.554-0.304,1.121-0.581,1.698-0.831c0.576-0.25,1.16-0.434,1.749-0.551
			c0.408-0.081,0.772-0.138,1.095-0.173c0.321-0.034,0.645-0.055,0.972-0.062c0.326-0.007,0.677,0.001,1.055,0.024
			c0.377,0.022,0.814,0.053,1.31,0.091c0.249,0.105,0.493,0.202,0.728,0.289c0.235,0.088,0.451,0.205,0.648,0.348
			c0.196,0.144,0.358,0.331,0.488,0.562c0.129,0.231,0.211,0.542,0.249,0.931c-0.487,0.146-1.055,0.218-1.704,0.216
			c-0.65-0.001-1.343-0.017-2.079-0.045c-0.737-0.029-1.487-0.034-2.253-0.014c-0.765,0.019-1.494,0.118-2.186,0.297
			c-0.692,0.178-1.323,0.469-1.892,0.871c-0.569,0.402-1.032,0.963-1.388,1.681c-0.07,0.752-0.025,1.46,0.133,2.125
			c0.159,0.665,0.386,1.301,0.684,1.909c0.297,0.608,0.641,1.202,1.034,1.781c0.393,0.58,0.772,1.162,1.141,1.747
			c0.368,0.585,0.708,1.176,1.019,1.774c0.311,0.598,0.546,1.22,0.708,1.867c0.046,0.255-0.07,0.552-0.347,0.891
			S374.183,154.856,373.792,154.937z"/>
		<path d="M384.352,146.561c-0.042-0.426,0.034-0.935,0.23-1.526c0.196-0.591,0.534-1.188,1.017-1.791
			c0.482-0.602,1.125-1.184,1.928-1.743s1.789-1.02,2.957-1.376c1.168-0.357,2.522-0.578,4.058-0.657
			c1.535-0.078,3.272,0.047,5.201,0.388c-0.002-0.018-0.026-0.138-0.074-0.358c-0.047-0.22-0.072-0.339-0.074-0.357
			c-0.072-0.651-0.369-1.276-0.895-1.874c-0.526-0.597-1.171-1.115-1.937-1.552c-0.765-0.438-1.584-0.761-2.455-0.969
			c-0.871-0.209-1.683-0.253-2.434-0.136c-0.318,0.05-0.586,0.135-0.803,0.254c-0.217,0.119-0.42,0.247-0.611,0.381
			s-0.378,0.259-0.56,0.374c-0.183,0.114-0.409,0.193-0.681,0.238c-0.046,0.007-0.081,0.003-0.105-0.011
			c-0.026-0.015-0.062-0.028-0.11-0.039c-0.072-0.026-0.166-0.073-0.279-0.138c-0.113-0.067-0.171-0.109-0.174-0.128
			c-0.06-0.443-0.01-0.843,0.151-1.2c0.162-0.357,0.399-0.665,0.714-0.924c0.315-0.259,0.689-0.476,1.121-0.648
			c0.433-0.172,0.901-0.299,1.404-0.378c1.25-0.083,2.455,0.046,3.61,0.386c1.157,0.339,2.239,0.832,3.246,1.475
			c1.007,0.644,1.913,1.419,2.719,2.322c0.805,0.905,1.491,1.87,2.061,2.893c0.569,1.024,0.99,2.081,1.266,3.17
			c0.276,1.09,0.384,2.148,0.329,3.176c-0.022,0.002-0.111,0.009-0.267,0.019c-0.155,0.009-0.316,0.02-0.483,0.031
			s-0.396,0.016-0.688,0.015c-0.739-1.097-1.531-1.958-2.376-2.583c-0.846-0.625-1.673-1.084-2.477-1.378
			c-0.805-0.294-1.548-0.477-2.228-0.549c-0.68-0.071-1.226-0.114-1.638-0.128c-0.448,0.067-0.975,0.174-1.583,0.323
			c-0.609,0.15-1.234,0.336-1.877,0.56c-0.644,0.225-1.28,0.491-1.91,0.8c-0.631,0.311-1.187,0.656-1.667,1.038
			c-0.481,0.382-0.853,0.808-1.114,1.277c-0.262,0.469-0.353,0.97-0.275,1.504c0.086,0.589,0.446,1.037,1.077,1.346
			c0.631,0.31,1.354,0.525,2.168,0.648c0.814,0.124,1.641,0.176,2.479,0.16c0.838-0.017,1.509-0.062,2.015-0.138
			c0.812-0.122,1.61-0.276,2.393-0.464c0.782-0.188,1.553-0.385,2.312-0.593c0.76-0.208,1.52-0.401,2.284-0.577
			c0.764-0.176,1.531-0.313,2.303-0.41c0.066-0.008,0.171-0.021,0.314-0.04c0.144-0.018,0.292-0.032,0.448-0.041
			c0.155-0.01,0.305-0.024,0.449-0.042c0.143-0.017,0.237-0.029,0.281-0.034c0.25,0.045,0.399,0.14,0.447,0.286
			c0.047,0.146,0.078,0.292,0.093,0.441s-0.157,0.335-0.513,0.557c-0.357,0.224-0.817,0.46-1.38,0.709
			c-0.564,0.25-1.192,0.509-1.885,0.777c-0.693,0.27-1.366,0.515-2.019,0.735c-0.653,0.22-1.252,0.411-1.8,0.572
			c-0.547,0.162-0.952,0.262-1.214,0.299c-1.224,0.175-2.521,0.278-3.898,0.309c-1.376,0.033-2.669-0.082-3.88-0.346
			c-1.211-0.263-2.25-0.734-3.118-1.415C385.078,148.801,384.545,147.829,384.352,146.561z"/>
		<path d="M406.297,136.269c0.016-0.078,0.052-0.181,0.109-0.312c0.056-0.128,0.13-0.261,0.221-0.395
			c0.091-0.133,0.189-0.25,0.295-0.348c0.105-0.097,0.227-0.154,0.363-0.17c0.022-0.003,0.04,0.001,0.052,0.009
			c0.013,0.008,0.041,0.009,0.087,0.003c0.034-0.004,0.068-0.008,0.103-0.012c0.728,0.198,1.341,0.53,1.838,0.994
			c0.496,0.465,0.94,1.002,1.332,1.612c0.391,0.609,0.767,1.263,1.129,1.963c0.361,0.699,0.754,1.392,1.179,2.075
			c0.424,0.685,0.91,1.336,1.459,1.954c0.549,0.617,1.229,1.152,2.041,1.606c0.213-0.776,0.429-1.534,0.647-2.273
			c0.221-0.739,0.479-1.486,0.779-2.242c0.299-0.755,0.656-1.544,1.068-2.367c0.412-0.82,0.899-1.701,1.459-2.638
			c0.709-0.325,1.285-0.528,1.726-0.611c0.438-0.083,0.747-0.064,0.924,0.056c0.178,0.118,0.216,0.324,0.116,0.616
			c-0.099,0.292-0.33,0.642-0.694,1.048c-0.217,0.188-0.472,0.611-0.764,1.27c-0.292,0.657-0.594,1.425-0.903,2.304
			c-0.311,0.877-0.637,1.799-0.981,2.765c-0.343,0.965-0.695,1.853-1.054,2.66c-0.361,0.807-0.725,1.478-1.099,2.011
			c-0.374,0.535-0.747,0.8-1.122,0.797c-0.395,0.036-0.87-0.189-1.424-0.675c-0.556-0.486-1.158-1.123-1.808-1.908
			c-0.65-0.785-1.317-1.657-2-2.615c-0.685-0.957-1.344-1.901-1.978-2.833c-0.634-0.931-1.226-1.785-1.773-2.561
			C407.076,137.277,406.633,136.681,406.297,136.269z"/>
		<path d="M424.954,137.793c-0.062-1.303,0.111-2.571,0.524-3.806c0.412-1.234,1.051-2.337,1.92-3.308
			c0.87-0.97,1.954-1.767,3.25-2.388c1.298-0.62,2.805-0.977,4.514-1.062c1.019,0.064,1.905,0.25,2.66,0.561
			c0.754,0.31,1.375,0.718,1.864,1.223c0.487,0.505,0.841,1.092,1.063,1.76c0.221,0.668,0.322,1.384,0.307,2.146
			c0.005,0.914-0.314,1.749-0.953,2.504c-0.639,0.755-1.434,1.397-2.385,1.932c-0.951,0.533-1.977,0.958-3.082,1.276
			c-1.106,0.319-2.141,0.506-3.105,0.561c-0.359,0.019-0.724,0.036-1.094,0.047c-0.371,0.012-0.703-0.02-0.998-0.097
			c-0.296-0.077-0.537-0.213-0.725-0.411c-0.188-0.197-0.288-0.493-0.304-0.891c-0.005-0.132,0.013-0.243,0.056-0.332
			c0.041-0.087,0.162-0.157,0.364-0.208c0.202-0.05,0.505-0.074,0.913-0.07c0.406,0.004,0.983,0.041,1.73,0.113
			c0.407-0.024,1.012-0.175,1.818-0.455c0.806-0.279,1.616-0.627,2.434-1.045c0.819-0.417,1.53-0.88,2.136-1.391
			c0.607-0.511,0.908-1.011,0.903-1.506c-0.006-0.494-0.114-0.985-0.327-1.472c-0.21-0.486-0.515-0.91-0.91-1.274
			c-0.396-0.363-0.866-0.647-1.409-0.85c-0.545-0.202-1.15-0.267-1.816-0.195c-1.079,0.133-2.051,0.429-2.909,0.887
			c-0.86,0.459-1.588,1.025-2.183,1.7c-0.594,0.673-1.041,1.419-1.34,2.235c-0.298,0.816-0.43,1.641-0.396,2.473
			c0.026,0.643,0.068,1.3,0.13,1.968c0.061,0.67,0.2,1.315,0.415,1.937c0.214,0.623,0.551,1.203,1.006,1.745
			c0.455,0.541,1.097,1.01,1.921,1.41c0.825,0.4,1.86,0.715,3.107,0.95c1.248,0.235,2.786,0.353,4.624,0.364
			c2.63-0.247,5.264-0.467,7.899-0.662c-0.49,0.562-1.09,1.03-1.796,1.405c-0.708,0.377-1.463,0.684-2.266,0.924
			c-0.803,0.239-1.604,0.418-2.405,0.539c-0.803,0.121-1.544,0.193-2.226,0.219c-1.691,0.062-3.295-0.104-4.814-0.504
			c-1.521-0.398-2.867-1.002-4.039-1.813c-1.172-0.811-2.126-1.814-2.861-3.016C425.435,140.715,425.026,139.342,424.954,137.793z"
			/>
		<path d="M449.662,146.704c-0.281-1.813-0.451-3.621-0.505-5.424c-0.055-1.806-0.065-3.604-0.029-5.4s0.094-3.586,0.176-5.375
			c0.083-1.787,0.126-3.578,0.129-5.374c0.003-0.209,0.099-0.354,0.286-0.434c0.187-0.08,0.396-0.121,0.628-0.125
			c0.28-0.004,0.527,0.08,0.746,0.249c0.217,0.17,0.397,0.373,0.545,0.61c0.146,0.238,0.256,0.48,0.332,0.729
			c0.075,0.247,0.112,0.447,0.109,0.601c0.108,3.65,0.164,6.691,0.169,9.119c0.005,2.429-0.037,4.389-0.123,5.88
			c-0.088,1.492-0.204,2.597-0.352,3.314c-0.146,0.718-0.326,1.204-0.541,1.463c-0.214,0.259-0.45,0.365-0.714,0.318
			C450.255,146.81,449.97,146.759,449.662,146.704z"/>
		<path d="M454.246,140.525c0.033-0.439,0.196-0.941,0.493-1.505c0.296-0.564,0.732-1.109,1.312-1.632
			c0.578-0.523,1.311-0.998,2.196-1.42c0.886-0.422,1.933-0.712,3.141-0.863c1.208-0.152,2.575-0.133,4.096,0.062
			c1.519,0.196,3.201,0.636,5.033,1.326c0.001-0.019-0.002-0.144-0.009-0.376c-0.007-0.231-0.011-0.356-0.009-0.375
			c0.044-0.673-0.137-1.36-0.548-2.06c-0.41-0.699-0.951-1.34-1.626-1.921c-0.674-0.58-1.421-1.056-2.238-1.424
			c-0.817-0.368-1.606-0.559-2.363-0.575c-0.322-0.007-0.601,0.031-0.832,0.114c-0.234,0.082-0.456,0.173-0.668,0.275
			c-0.211,0.102-0.416,0.194-0.613,0.278c-0.199,0.083-0.436,0.122-0.712,0.119c-0.045-0.001-0.079-0.01-0.101-0.03
			c-0.022-0.02-0.056-0.039-0.101-0.059c-0.066-0.04-0.15-0.103-0.251-0.19c-0.098-0.088-0.148-0.142-0.147-0.161
			c0.02-0.46,0.139-0.857,0.359-1.189c0.222-0.333,0.508-0.602,0.863-0.809c0.354-0.206,0.76-0.357,1.215-0.456
			c0.455-0.097,0.936-0.141,1.443-0.13c1.24,0.141,2.4,0.488,3.474,1.039c1.075,0.552,2.052,1.245,2.926,2.078
			c0.874,0.833,1.627,1.782,2.259,2.843c0.63,1.061,1.133,2.162,1.512,3.301c0.378,1.14,0.604,2.287,0.683,3.441
			c0.079,1.155-0.003,2.247-0.237,3.278c-0.022-0.002-0.112-0.011-0.267-0.029c-0.153-0.019-0.313-0.036-0.48-0.055
			c-0.164-0.018-0.392-0.054-0.677-0.108c-0.53-1.244-1.156-2.259-1.876-3.043c-0.721-0.785-1.45-1.398-2.187-1.841
			c-0.738-0.443-1.435-0.761-2.088-0.956c-0.656-0.195-1.184-0.335-1.586-0.425c-0.451-0.012-0.986,0.001-1.609,0.043
			c-0.623,0.042-1.27,0.119-1.94,0.23c-0.67,0.112-1.341,0.267-2.013,0.468c-0.673,0.201-1.278,0.453-1.816,0.752
			c-0.539,0.301-0.978,0.666-1.316,1.094s-0.517,0.92-0.534,1.476c-0.02,0.612,0.255,1.132,0.818,1.559
			c0.563,0.428,1.234,0.776,2.01,1.047c0.776,0.272,1.577,0.474,2.402,0.607c0.825,0.134,1.489,0.209,2,0.222
			c0.817,0.023,1.627,0.01,2.429-0.041c0.8-0.05,1.59-0.112,2.372-0.188c0.78-0.075,1.562-0.133,2.341-0.176
			c0.78-0.042,1.558-0.043,2.333-0.004c0.066,0.004,0.172,0.009,0.315,0.017s0.293,0.021,0.448,0.038
			c0.152,0.018,0.302,0.03,0.446,0.038c0.145,0.009,0.238,0.014,0.282,0.016c0.237,0.091,0.367,0.213,0.388,0.37
			c0.021,0.156,0.025,0.311,0.015,0.464c-0.013,0.155-0.213,0.312-0.604,0.475c-0.389,0.162-0.884,0.319-1.479,0.472
			c-0.598,0.153-1.261,0.303-1.987,0.451c-0.728,0.149-1.432,0.278-2.11,0.385s-1.301,0.192-1.866,0.258
			c-0.565,0.066-0.98,0.095-1.243,0.086c-1.23-0.042-2.521-0.172-3.877-0.387c-1.354-0.214-2.603-0.563-3.741-1.049
			c-1.141-0.485-2.075-1.148-2.806-1.996C454.562,142.928,454.211,141.847,454.246,140.525z"/>
		<path d="M477.269,142.689c0.135-1.619,0.577-2.957,1.335-4.014c0.757-1.058,1.721-1.888,2.891-2.487
			c1.168-0.6,2.502-0.997,3.995-1.184c1.491-0.187,3.033-0.212,4.62-0.072c1.293,0.113,2.535,0.403,3.727,0.872
			c1.189,0.467,2.219,1.076,3.093,1.825c0.871,0.75,1.528,1.62,1.973,2.611c0.442,0.992,0.579,2.078,0.415,3.255
			c-0.145,1.044-0.49,1.868-1.031,2.472c-0.543,0.604-1.212,1.052-2.009,1.346c-0.798,0.293-1.671,0.462-2.622,0.51
			c-0.95,0.047-1.907,0.022-2.872-0.071c-0.923-0.091-1.874-0.213-2.855-0.371c-0.98-0.156-1.862-0.413-2.646-0.77
			c-0.784-0.356-1.412-0.839-1.886-1.449s-0.663-1.415-0.565-2.418c0.622,0.047,1.212,0.199,1.768,0.457
			c0.556,0.258,1.114,0.537,1.674,0.837c0.559,0.3,1.121,0.582,1.684,0.846c0.562,0.265,1.162,0.426,1.804,0.486
			c0.485,0.045,1.114,0.066,1.884,0.063c0.772-0.001,1.518-0.078,2.24-0.228c0.725-0.149,1.366-0.385,1.924-0.707
			c0.558-0.321,0.878-0.781,0.957-1.379c0.116-0.869-0.006-1.651-0.368-2.347c-0.361-0.695-0.88-1.298-1.554-1.806
			c-0.675-0.509-1.449-0.918-2.322-1.226s-1.762-0.501-2.664-0.582c-0.136-0.012-0.431-0.014-0.888-0.004
			c-0.456,0.01-0.994,0.047-1.615,0.112c-0.621,0.065-1.267,0.159-1.938,0.282c-0.671,0.123-1.299,0.284-1.884,0.485
			c-0.587,0.199-1.074,0.441-1.462,0.724c-0.389,0.283-0.601,0.618-0.637,1.003c-0.014,0.154-0.028,0.308-0.043,0.462
			c-0.006,0.291-0.007,0.674-0.007,1.15s0.001,0.951,0.001,1.425c-0.001,0.476,0.005,0.894,0.015,1.253
			c0.011,0.36,0.015,0.569,0.01,0.627c0.027,0.409,0.071,1.048,0.132,1.916c0.063,0.868,0.135,1.844,0.218,2.928
			s0.175,2.228,0.275,3.431c0.1,1.203,0.194,2.347,0.282,3.433c0.086,1.085,0.167,2.055,0.243,2.907s0.134,1.484,0.178,1.897
			c-0.003,0.039-0.003,0.077,0.005,0.117c0.006,0.039,0.008,0.078,0.005,0.117c-0.002,0.02-0.01,0.033-0.021,0.042
			c-0.012,0.009-0.018,0.023-0.019,0.043c-0.004,0.029-0.007,0.058-0.011,0.086c-0.05,0.073-0.188,0.193-0.419,0.358
			c-0.229,0.165-0.39,0.264-0.478,0.294c-0.074-0.006-0.148-0.013-0.223-0.019c-0.273-0.022-0.546-0.287-0.817-0.795
			c-0.271-0.508-0.532-1.179-0.787-2.014s-0.499-1.79-0.736-2.865c-0.236-1.075-0.457-2.187-0.658-3.334
			c-0.204-1.149-0.393-2.291-0.568-3.426c-0.177-1.136-0.324-2.181-0.441-3.138c-0.117-0.956-0.204-1.785-0.255-2.485
			C477.258,143.472,477.244,142.978,477.269,142.689z"/>
		<path d="M268.739,216.413c0.358-0.198,0.744-0.402,1.158-0.611c0.414-0.208,0.82-0.361,1.221-0.46
			c0.4-0.098,0.772-0.111,1.117-0.04c0.345,0.073,0.617,0.294,0.818,0.664c0.234,0.432,0.105,0.779-0.382,1.045
			c-0.545,0.296-1.078,0.512-1.601,0.65c-0.523,0.138-1.075,0.368-1.656,0.691c-0.73,0.406-1.431,0.844-2.101,1.312
			c-0.671,0.47-1.338,0.955-2.002,1.458c-0.664,0.501-1.328,0.99-1.992,1.469c-0.665,0.478-1.357,0.93-2.079,1.355
			c-0.285-0.479-0.378-0.939-0.277-1.383c0.098-0.444,0.324-0.88,0.674-1.307c0.349-0.427,0.791-0.837,1.325-1.229
			c0.534-0.391,1.097-0.765,1.687-1.125c0.592-0.358,1.17-0.703,1.739-1.035c0.568-0.331,1.065-0.646,1.491-0.945
			c0.151-0.084,0.271-0.155,0.361-0.216c0.09-0.06,0.182-0.117,0.276-0.169C268.608,216.486,268.684,216.444,268.739,216.413z"/>
		<path d="M286.512,219.866c-0.032-0.062-0.088-0.172-0.167-0.331c-0.079-0.156-0.169-0.323-0.27-0.5
			c-0.102-0.176-0.19-0.343-0.27-0.5s-0.135-0.267-0.167-0.33c-0.453-0.896-0.802-1.725-1.046-2.49
			c-0.245-0.765-0.437-1.531-0.574-2.3c-0.138-0.769-0.246-1.574-0.32-2.414c-0.075-0.84-0.183-1.787-0.323-2.841
			c-0.015-0.032-0.048-0.109-0.097-0.233c-0.049-0.124-0.082-0.201-0.098-0.233c0.031-0.034-0.245-0.025-0.83,0.032
			c-0.584,0.056-1.325,0.088-2.224,0.102s-1.905-0.021-3.018-0.098s-2.199-0.271-3.262-0.584c-1.063-0.312-2.039-0.777-2.928-1.396
			c-0.888-0.619-1.549-1.468-1.976-2.555c0.019-0.011,0.086-0.051,0.199-0.123c0.113-0.071,0.239-0.154,0.377-0.249
			s0.269-0.179,0.392-0.255c0.123-0.075,0.194-0.119,0.214-0.129c0.398,0.325,0.892,0.658,1.483,1
			c0.591,0.342,1.25,0.665,1.978,0.968c0.726,0.303,1.494,0.571,2.302,0.804c0.808,0.235,1.619,0.396,2.432,0.483
			c0.812,0.088,1.612,0.087,2.401-0.006c0.789-0.092,1.521-0.306,2.198-0.642c0.051-1.07,0.1-1.922,0.142-2.555
			c0.042-0.632,0.07-1.124,0.082-1.474c0.012-0.351,0.008-0.61-0.012-0.776c-0.021-0.168-0.052-0.333-0.096-0.499
			c-0.044-0.167-0.106-0.371-0.188-0.617c-0.082-0.245-0.175-0.627-0.279-1.147c-0.046-0.096,0.008-0.235,0.164-0.42
			c0.154-0.185,0.34-0.345,0.556-0.48c0.215-0.135,0.438-0.218,0.666-0.251c0.229-0.032,0.398,0.042,0.509,0.226
			c0.554,1.167,0.918,2.354,1.098,3.565c0.18,1.211,0.278,2.431,0.296,3.66c0.019,1.229,0.013,2.462-0.015,3.695
			c-0.028,1.234,0.024,2.463,0.157,3.688c0.131,1.225,0.395,2.432,0.79,3.624c0.393,1.193,1.018,2.364,1.869,3.518
			c-0.031,0.311-0.097,0.549-0.198,0.716c-0.102,0.169-0.282,0.317-0.541,0.445c-0.26,0.128-0.492,0.185-0.697,0.168
			C287.016,220.118,286.779,220.028,286.512,219.866z"/>
		<path d="M292.044,209.317c-0.55-1.169-0.728-2.339-0.523-3.512c0.204-1.172,0.673-2.292,1.412-3.357
			c0.737-1.064,1.676-2.036,2.816-2.912c1.138-0.875,2.35-1.594,3.628-2.154c0.669-0.293,1.35-0.462,2.04-0.509
			c0.69-0.045,1.378,0,2.06,0.136c0.683,0.137,1.332,0.351,1.948,0.645c0.617,0.294,1.175,0.636,1.678,1.026
			c0.503,0.391,0.944,0.813,1.321,1.266c0.378,0.453,0.661,0.913,0.849,1.375c0.457,1.125,0.604,2.238,0.446,3.335
			c-0.157,1.098-0.539,2.128-1.143,3.094c-0.604,0.968-1.384,1.837-2.34,2.612c-0.957,0.775-1.999,1.408-3.13,1.904
			c-1.15,0.504-2.278,0.821-3.386,0.95c-1.109,0.13-2.151,0.078-3.127-0.156c-0.977-0.233-1.86-0.662-2.65-1.289
			C293.154,211.142,292.52,210.326,292.044,209.317z M293.794,208.204c0.306,0.66,0.746,1.222,1.319,1.689
			c0.574,0.467,1.227,0.811,1.958,1.031c0.732,0.223,1.507,0.309,2.329,0.26c0.821-0.046,1.638-0.25,2.453-0.61
			c0.457-0.144,0.958-0.431,1.505-0.862c0.546-0.431,1.065-0.941,1.558-1.531c0.492-0.589,0.93-1.23,1.314-1.925
			s0.654-1.388,0.806-2.082c0.154-0.691,0.16-1.347,0.018-1.965c-0.143-0.617-0.499-1.15-1.072-1.596
			c-0.575-0.446-1.399-0.763-2.477-0.942c-1.078-0.18-2.469-0.172-4.172,0.033c-0.86,0.379-1.708,0.882-2.539,1.508
			c-0.832,0.628-1.533,1.321-2.102,2.08c-0.569,0.758-0.956,1.562-1.161,2.409C293.325,206.551,293.414,207.383,293.794,208.204z"/>
		<path d="M326.257,197.513c-0.505,0.503-0.897,1.041-1.177,1.609c-0.28,0.569-0.569,1.122-0.868,1.662
			c-0.299,0.538-0.665,1.039-1.097,1.504c-0.432,0.464-1.051,0.846-1.859,1.147c-0.924,0.345-1.826,0.484-2.709,0.42
			c-0.884-0.065-1.729-0.277-2.534-0.636c-0.806-0.359-1.568-0.828-2.289-1.409s-1.375-1.21-1.961-1.892
			c-0.586-0.679-1.101-1.375-1.542-2.083c-0.442-0.708-0.786-1.37-1.032-1.984c-0.694-1.107-1.036-2.059-1.02-2.857
			c0.016-0.799,0.193-1.373,0.53-1.722c0.336-0.349,0.71-0.446,1.118-0.291c0.407,0.155,0.646,0.623,0.721,1.402
			c-0.007,0.101,0.007,0.254,0.042,0.461c0.036,0.208,0.077,0.417,0.126,0.629c0.048,0.212,0.092,0.411,0.131,0.598
			c0.04,0.187,0.072,0.314,0.098,0.38c0.183,0.467,0.453,0.995,0.81,1.584c0.356,0.591,0.783,1.187,1.278,1.789
			c0.495,0.605,1.045,1.177,1.648,1.719c0.603,0.543,1.24,0.993,1.911,1.348c0.671,0.355,1.369,0.587,2.096,0.695
			c0.727,0.107,1.456,0.023,2.192-0.251c0.465-0.174,0.918-0.568,1.366-1.182c0.446-0.615,0.839-1.294,1.179-2.041
			c0.338-0.743,0.59-1.481,0.752-2.208c0.162-0.728,0.186-1.291,0.067-1.689c-0.078-0.22-0.205-0.595-0.381-1.125
			c-0.176-0.53-0.367-1.088-0.573-1.674c-0.207-0.585-0.408-1.14-0.604-1.663c-0.195-0.522-0.329-0.886-0.4-1.09
			c0.076-0.295,0.185-0.536,0.323-0.719c0.139-0.184,0.349-0.327,0.63-0.428c0.321-0.115,0.651-0.028,0.988,0.263
			c0.338,0.293,0.667,0.696,0.992,1.213c0.323,0.517,0.624,1.099,0.902,1.746c0.278,0.649,0.538,1.274,0.777,1.877
			c0.241,0.604,0.452,1.137,0.632,1.599c0.181,0.462,0.327,0.76,0.438,0.893c0.296,0.414,0.667,0.858,1.114,1.332
			c0.447,0.476,0.877,0.943,1.295,1.402c0.416,0.458,0.786,0.88,1.11,1.265c0.325,0.386,0.523,0.689,0.598,0.912
			c0.115,0.342,0.072,0.585-0.126,0.729c-0.2,0.144-0.464,0.271-0.792,0.383c-0.407,0.137-0.737,0.151-0.991,0.038
			c-0.254-0.112-0.479-0.292-0.672-0.539c-0.194-0.249-0.375-0.538-0.544-0.87c-0.169-0.333-0.374-0.659-0.614-0.975
			c-0.24-0.317-0.522-0.596-0.847-0.835C327.17,197.71,326.757,197.564,326.257,197.513z"/>
		<path d="M337.259,199.312c-0.854-0.733-1.663-1.574-2.423-2.523c-0.762-0.948-1.471-1.923-2.126-2.923
			c-0.656-1.001-1.241-1.993-1.751-2.974c-0.511-0.982-0.936-1.882-1.274-2.702c-0.052-0.155-0.119-0.328-0.205-0.517
			c-0.085-0.19-0.157-0.391-0.214-0.6c-0.059-0.209-0.083-0.42-0.075-0.633c0.008-0.212,0.07-0.415,0.186-0.607
			c0.021-0.007,0.041-0.014,0.061-0.021c0.019-0.006,0.034-0.016,0.041-0.029c0.007-0.01,0.021-0.02,0.041-0.027
			s0.037-0.008,0.05-0.003c0.013,0.006,0.04,0.001,0.08-0.013c0.03-0.01,0.061-0.02,0.091-0.03c0.066-0.002,0.212,0,0.439,0.01
			c0.227,0.009,0.375,0.021,0.448,0.035c0.438-0.3,0.884-0.63,1.339-0.99c0.454-0.359,0.917-0.712,1.39-1.056
			c0.472-0.345,0.958-0.665,1.458-0.958c0.5-0.294,1.015-0.525,1.543-0.692c0.366-0.116,0.695-0.205,0.988-0.269
			c0.292-0.062,0.589-0.112,0.89-0.149c0.3-0.037,0.626-0.061,0.977-0.075c0.352-0.013,0.759-0.023,1.222-0.032
			c0.244,0.078,0.48,0.148,0.709,0.212c0.228,0.063,0.443,0.155,0.643,0.276c0.2,0.12,0.375,0.285,0.524,0.497
			c0.149,0.212,0.267,0.504,0.352,0.877c-0.43,0.186-0.944,0.307-1.543,0.364c-0.599,0.059-1.241,0.108-1.924,0.148
			c-0.684,0.04-1.378,0.104-2.082,0.193c-0.704,0.088-1.364,0.251-1.979,0.487c-0.616,0.236-1.16,0.574-1.631,1.014
			c-0.473,0.44-0.825,1.023-1.058,1.748c0.035,0.731,0.172,1.411,0.407,2.037c0.236,0.627,0.531,1.22,0.887,1.78
			c0.355,0.559,0.753,1.1,1.193,1.623c0.439,0.523,0.868,1.051,1.286,1.581c0.418,0.531,0.81,1.07,1.177,1.619
			c0.367,0.548,0.667,1.126,0.901,1.735c0.077,0.242,0.009,0.539-0.2,0.891C337.887,198.969,337.608,199.2,337.259,199.312z"/>
		<path d="M364.464,178.791c-0.204,0.048-0.583,0.132-1.135,0.253s-1.128,0.212-1.728,0.272c-0.6,0.06-1.156,0.055-1.668-0.017
			c-0.514-0.071-0.823-0.283-0.929-0.634c-0.026-0.107-0.039-0.254-0.041-0.443c-0.002-0.188,0.11-0.312,0.335-0.367
			c1.389-0.449,2.781-0.89,4.175-1.323c-0.074-0.906-0.153-1.648-0.237-2.223c-0.085-0.574-0.193-1.106-0.324-1.595
			c-0.13-0.487-0.282-0.995-0.454-1.52c-0.172-0.525-0.366-1.215-0.579-2.071c-0.036-0.162-0.023-0.301,0.039-0.42
			c0.061-0.119,0.149-0.221,0.263-0.304c0.114-0.084,0.242-0.151,0.385-0.205c0.143-0.053,0.267-0.092,0.372-0.117
			c0.168-0.039,0.351-0.035,0.549,0.013s0.38,0.128,0.548,0.24c0.168,0.112,0.312,0.239,0.43,0.381s0.193,0.285,0.225,0.429
			c0.599,2.211,1.196,4.423,1.791,6.636c1.182-0.222,2.363-0.437,3.545-0.646c0.467-0.138,0.922-0.147,1.364-0.025
			c0.443,0.122,0.729,0.453,0.858,0.992c-0.268,0.375-0.625,0.646-1.072,0.806c-0.448,0.163-0.929,0.295-1.442,0.397
			c-0.514,0.102-1.015,0.213-1.503,0.332c-0.489,0.118-0.895,0.327-1.215,0.625c0.031,0.144,0.126,0.537,0.286,1.181
			c0.16,0.643,0.351,1.401,0.571,2.275c0.22,0.875,0.458,1.811,0.715,2.809c0.258,0.999,0.493,1.921,0.707,2.769
			c0.214,0.848,0.395,1.57,0.544,2.167c0.15,0.598,0.232,0.933,0.248,1.005c-0.542,0.458-1.041,0.535-1.5,0.234
			c-0.459-0.302-0.89-0.817-1.292-1.545c-0.402-0.729-0.764-1.601-1.086-2.621c-0.323-1.019-0.604-2.038-0.843-3.058
			c-0.239-1.02-0.438-1.955-0.596-2.803C364.614,179.822,364.511,179.195,364.464,178.791z"/>
		<path d="M379.493,188.538c-0.755-0.854-1.452-1.81-2.089-2.869c-0.638-1.059-1.222-2.138-1.749-3.236
			c-0.528-1.099-0.987-2.178-1.374-3.238c-0.387-1.061-0.699-2.027-0.936-2.901c-0.033-0.164-0.079-0.347-0.141-0.55
			c-0.061-0.204-0.108-0.416-0.141-0.635c-0.033-0.22-0.033-0.436,0.001-0.65c0.032-0.214,0.117-0.411,0.253-0.591
			c0.021-0.004,0.042-0.008,0.062-0.013c0.02-0.004,0.035-0.011,0.043-0.023c0.008-0.01,0.023-0.019,0.043-0.023
			s0.037-0.003,0.049,0.003c0.012,0.008,0.039,0.007,0.081-0.002c0.031-0.006,0.062-0.013,0.093-0.019
			c0.065,0.006,0.208,0.028,0.431,0.067c0.222,0.039,0.367,0.071,0.437,0.095c0.467-0.247,0.945-0.523,1.435-0.828
			c0.489-0.305,0.986-0.602,1.492-0.888c0.505-0.287,1.022-0.548,1.549-0.781c0.527-0.233,1.061-0.4,1.602-0.5
			c0.375-0.07,0.709-0.118,1.005-0.145c0.295-0.025,0.593-0.037,0.894-0.036c0.3,0.001,0.624,0.019,0.971,0.051
			c0.348,0.032,0.75,0.074,1.208,0.125c0.231,0.11,0.456,0.212,0.674,0.307c0.217,0.094,0.417,0.214,0.601,0.362
			c0.184,0.146,0.335,0.336,0.458,0.57c0.122,0.234,0.203,0.545,0.243,0.933c-0.446,0.133-0.967,0.189-1.563,0.17
			c-0.597-0.018-1.234-0.051-1.912-0.098c-0.678-0.048-1.369-0.072-2.073-0.074c-0.704-0.002-1.373,0.078-2.007,0.236
			c-0.634,0.16-1.209,0.431-1.726,0.815c-0.517,0.383-0.933,0.928-1.248,1.631c-0.051,0.744,0.003,1.45,0.161,2.115
			c0.158,0.666,0.379,1.305,0.664,1.917c0.284,0.612,0.612,1.211,0.984,1.798c0.371,0.586,0.731,1.176,1.08,1.768
			c0.35,0.591,0.672,1.188,0.969,1.791c0.296,0.603,0.523,1.228,0.683,1.874c0.046,0.255-0.054,0.547-0.302,0.875
			C380.151,188.271,379.85,188.47,379.493,188.538z"/>
		<path d="M389.041,180.498c-0.045-0.425,0.016-0.929,0.187-1.513c0.171-0.582,0.472-1.167,0.906-1.756
			c0.433-0.587,1.014-1.149,1.744-1.687c0.729-0.537,1.627-0.97,2.694-1.298c1.066-0.326,2.306-0.514,3.714-0.557
			c1.408-0.043,3.002,0.123,4.775,0.505c-0.002-0.019-0.026-0.138-0.072-0.358c-0.045-0.221-0.07-0.34-0.072-0.359
			c-0.073-0.65-0.354-1.279-0.844-1.886c-0.489-0.607-1.088-1.138-1.797-1.591c-0.708-0.453-1.464-0.794-2.267-1.022
			s-1.55-0.291-2.238-0.192c-0.292,0.043-0.537,0.121-0.734,0.234c-0.198,0.115-0.383,0.236-0.556,0.365
			c-0.174,0.129-0.344,0.249-0.509,0.357c-0.166,0.111-0.373,0.185-0.623,0.222c-0.042,0.007-0.075,0.002-0.097-0.014
			c-0.024-0.014-0.057-0.028-0.102-0.04c-0.067-0.028-0.154-0.076-0.259-0.145c-0.105-0.069-0.159-0.112-0.162-0.13
			c-0.062-0.443-0.021-0.839,0.122-1.191c0.143-0.352,0.357-0.652,0.643-0.903c0.287-0.25,0.627-0.458,1.022-0.62
			c0.395-0.162,0.824-0.276,1.285-0.343c1.147-0.054,2.257,0.103,3.323,0.466c1.066,0.364,2.067,0.88,2.999,1.543
			c0.933,0.664,1.774,1.456,2.524,2.374c0.749,0.919,1.39,1.896,1.923,2.928c0.534,1.033,0.931,2.097,1.197,3.188
			c0.266,1.093,0.377,2.151,0.338,3.172c-0.021,0.002-0.102,0.006-0.244,0.013c-0.142,0.007-0.289,0.013-0.441,0.021
			c-0.153,0.007-0.362,0.007-0.629-0.001c-0.689-1.109-1.425-1.985-2.207-2.628c-0.782-0.641-1.546-1.117-2.287-1.429
			c-0.741-0.312-1.425-0.511-2.049-0.598c-0.624-0.087-1.125-0.142-1.503-0.166c-0.41,0.056-0.893,0.149-1.448,0.284
			c-0.556,0.135-1.127,0.306-1.714,0.512c-0.586,0.208-1.167,0.458-1.74,0.751s-1.079,0.624-1.515,0.992
			c-0.435,0.367-0.77,0.783-1.002,1.243c-0.233,0.46-0.309,0.956-0.229,1.49c0.088,0.588,0.424,1.043,1.008,1.366
			c0.583,0.325,1.249,0.558,1.997,0.7c0.748,0.143,1.506,0.217,2.273,0.22c0.767,0.004,1.381-0.024,1.844-0.087
			c0.742-0.102,1.47-0.237,2.184-0.406c0.713-0.167,1.417-0.346,2.108-0.537c0.691-0.19,1.386-0.364,2.083-0.521
			c0.696-0.158,1.397-0.277,2.102-0.356c0.061-0.008,0.156-0.019,0.287-0.032c0.131-0.015,0.267-0.026,0.41-0.031
			c0.142-0.006,0.278-0.018,0.41-0.032c0.131-0.015,0.217-0.024,0.257-0.029c0.229,0.051,0.367,0.15,0.412,0.295
			c0.045,0.146,0.075,0.293,0.09,0.443s-0.14,0.33-0.463,0.543c-0.324,0.215-0.742,0.44-1.254,0.675
			c-0.512,0.237-1.083,0.48-1.714,0.733c-0.63,0.253-1.243,0.482-1.837,0.686c-0.594,0.204-1.14,0.38-1.638,0.529
			c-0.499,0.148-0.867,0.237-1.107,0.269c-1.117,0.145-2.303,0.214-3.563,0.213c-1.26-0.002-2.445-0.149-3.559-0.443
			c-1.114-0.292-2.073-0.787-2.879-1.488C389.742,182.746,389.238,181.764,389.041,180.498z"/>
		<path d="M409.026,170.758c0.014-0.077,0.046-0.179,0.097-0.308c0.051-0.127,0.116-0.256,0.199-0.389
			c0.082-0.131,0.17-0.244,0.267-0.34c0.095-0.095,0.206-0.149,0.331-0.162c0.021-0.001,0.037,0.001,0.048,0.01
			c0.012,0.008,0.038,0.01,0.08,0.006c0.031-0.003,0.062-0.007,0.094-0.01c0.669,0.212,1.234,0.556,1.695,1.028
			c0.459,0.473,0.872,1.018,1.237,1.634c0.364,0.616,0.715,1.277,1.053,1.981c0.338,0.705,0.705,1.403,1.1,2.095
			c0.395,0.692,0.847,1.351,1.354,1.977c0.508,0.627,1.134,1.175,1.88,1.644c0.188-0.77,0.378-1.523,0.571-2.255
			c0.193-0.734,0.423-1.474,0.69-2.223c0.268-0.749,0.585-1.529,0.957-2.341c0.371-0.812,0.809-1.683,1.313-2.607
			c0.647-0.312,1.173-0.504,1.573-0.579c0.402-0.075,0.685-0.051,0.847,0.071c0.163,0.121,0.199,0.328,0.112,0.618
			c-0.09,0.29-0.298,0.634-0.628,1.035c-0.197,0.183-0.428,0.602-0.688,1.252c-0.263,0.652-0.531,1.413-0.807,2.283
			c-0.276,0.871-0.567,1.784-0.873,2.743c-0.306,0.957-0.619,1.836-0.94,2.633c-0.32,0.797-0.649,1.461-0.984,1.986
			c-0.336,0.526-0.674,0.783-1.017,0.772c-0.36,0.028-0.795-0.206-1.307-0.703c-0.512-0.495-1.068-1.142-1.67-1.938
			c-0.603-0.797-1.22-1.679-1.855-2.649c-0.636-0.969-1.25-1.924-1.839-2.866c-0.591-0.941-1.142-1.806-1.652-2.592
			C409.752,171.779,409.339,171.177,409.026,170.758z"/>
		<path d="M426.12,172.636c-0.066-1.303,0.082-2.566,0.45-3.792c0.369-1.224,0.947-2.315,1.737-3.27
			c0.788-0.955,1.775-1.734,2.96-2.333c1.184-0.6,2.561-0.932,4.127-0.992c0.933,0.077,1.745,0.278,2.438,0.597
			c0.691,0.321,1.262,0.738,1.71,1.249c0.448,0.511,0.775,1.104,0.98,1.773c0.207,0.671,0.302,1.388,0.288,2.149
			c0.008,0.914-0.28,1.743-0.86,2.488c-0.58,0.747-1.304,1.378-2.169,1.896c-0.865,0.52-1.801,0.929-2.809,1.23
			c-1.009,0.302-1.953,0.472-2.833,0.51c-0.328,0.014-0.661,0.024-1,0.031c-0.337,0.006-0.643-0.032-0.912-0.114
			c-0.271-0.081-0.491-0.221-0.664-0.421c-0.173-0.2-0.268-0.499-0.284-0.895c-0.006-0.132,0.01-0.243,0.049-0.329
			c0.037-0.088,0.148-0.155,0.332-0.202s0.462-0.067,0.834-0.056c0.371,0.01,0.899,0.056,1.584,0.14
			c0.369-0.017,0.921-0.158,1.656-0.425s1.475-0.602,2.221-1.008c0.745-0.406,1.394-0.857,1.945-1.357
			c0.551-0.501,0.825-0.999,0.817-1.493c-0.008-0.494-0.108-0.986-0.305-1.474c-0.196-0.489-0.476-0.918-0.84-1.286
			c-0.363-0.37-0.794-0.66-1.293-0.87c-0.499-0.21-1.054-0.284-1.663-0.223c-0.987,0.116-1.874,0.397-2.659,0.842
			c-0.784,0.445-1.447,1-1.986,1.663c-0.54,0.663-0.944,1.401-1.211,2.212c-0.269,0.81-0.383,1.631-0.347,2.462
			c0.027,0.643,0.072,1.299,0.132,1.969c0.061,0.669,0.191,1.316,0.392,1.94c0.201,0.625,0.512,1.21,0.932,1.758
			s1.007,1.028,1.764,1.44c0.754,0.414,1.7,0.746,2.841,1c1.139,0.254,2.543,0.396,4.218,0.433c2.396-0.207,4.796-0.391,7.198-0.551
			c-0.445,0.556-0.991,1.014-1.634,1.38c-0.643,0.368-1.329,0.665-2.059,0.892c-0.731,0.228-1.462,0.396-2.191,0.504
			c-0.729,0.109-1.404,0.171-2.026,0.186c-1.541,0.037-3.002-0.155-4.392-0.579c-1.39-0.423-2.619-1.048-3.694-1.876
			c-1.076-0.831-1.954-1.849-2.634-3.061C426.58,175.561,426.197,174.184,426.12,172.636z"/>
		<path d="M448.707,181.907c-0.261-1.815-0.421-3.624-0.474-5.428c-0.053-1.805-0.066-3.603-0.037-5.398
			c0.027-1.794,0.077-3.584,0.149-5.369c0.07-1.786,0.106-3.577,0.104-5.37c0.003-0.21,0.088-0.354,0.261-0.431
			c0.17-0.076,0.362-0.117,0.575-0.117c0.255,0,0.482,0.085,0.682,0.258c0.2,0.172,0.367,0.377,0.5,0.616
			c0.135,0.239,0.235,0.482,0.307,0.732c0.069,0.249,0.104,0.449,0.101,0.602c0.104,3.652,0.159,6.692,0.169,9.119
			c0.008,2.428-0.027,4.387-0.104,5.877c-0.077,1.491-0.182,2.593-0.314,3.308c-0.132,0.714-0.296,1.201-0.49,1.456
			c-0.194,0.256-0.411,0.36-0.649,0.311C449.247,182.021,448.986,181.966,448.707,181.907z"/>
		<path d="M469.733,164.401c-0.07-1.142-0.175-2.112-0.312-2.911c-0.138-0.797-0.187-1.456-0.141-1.974
			c0.044-0.518,0.244-0.909,0.606-1.17c0.359-0.261,1.003-0.426,1.931-0.491c0.022,0.271,0.058,0.766,0.102,1.483
			c0.044,0.717,0.086,1.536,0.124,2.456c0.04,0.92,0.08,1.879,0.122,2.877c0.042,0.998,0.097,1.909,0.159,2.734
			c0.064,0.827,0.138,1.508,0.222,2.045c0.086,0.538,0.19,0.792,0.318,0.76c0.495,0.033,0.992-0.01,1.49-0.131
			c0.498-0.12,1.018-0.16,1.556-0.121c0.827,0.061,1.706,0.2,2.634,0.421c0.927,0.221,1.84,0.517,2.739,0.889
			c0.898,0.372,1.751,0.82,2.558,1.347c0.805,0.526,1.496,1.122,2.072,1.787c0.578,0.664,1.014,1.4,1.311,2.204
			c0.297,0.805,0.389,1.671,0.28,2.598c-0.143,1.197-0.562,2.113-1.254,2.75c-0.69,0.637-1.52,1.088-2.486,1.358
			c-0.968,0.27-1.998,0.4-3.093,0.391c-1.097-0.007-2.131-0.054-3.106-0.138c-1.316-0.115-2.402-0.362-3.266-0.75
			c-0.862-0.386-1.553-0.877-2.071-1.476c-0.519-0.597-0.898-1.279-1.136-2.05c-0.237-0.769-0.396-1.601-0.476-2.495
			c-0.078-0.894-0.115-1.824-0.108-2.789c0.006-0.966-0.009-1.933-0.044-2.901c-0.009-0.175-0.048-0.587-0.115-1.239
			c-0.069-0.651-0.151-1.355-0.244-2.114c-0.095-0.758-0.179-1.462-0.248-2.113C469.784,164.988,469.742,164.576,469.733,164.401z
			 M472.979,174.747c-0.372,1.097-0.379,2.074-0.027,2.93c0.351,0.857,0.902,1.575,1.655,2.155c0.752,0.581,1.635,1.015,2.65,1.305
			c1.014,0.289,2.032,0.415,3.058,0.375c1.024-0.04,1.974-0.259,2.849-0.658c0.875-0.399,1.551-1.002,2.03-1.812
			c0.076-0.694-0.02-1.338-0.292-1.933c-0.273-0.593-0.656-1.14-1.149-1.636c-0.491-0.497-1.07-0.938-1.732-1.32
			c-0.664-0.384-1.35-0.712-2.058-0.988c-0.708-0.274-1.411-0.494-2.109-0.656c-0.701-0.162-1.328-0.264-1.884-0.307
			c-0.905-0.067-1.613,0.128-2.126,0.587C473.331,173.247,473.045,173.899,472.979,174.747z"/>
		<path d="M503.763,181.064c-0.677,0.23-1.273,0.55-1.788,0.956c-0.516,0.405-1.032,0.792-1.549,1.16
			c-0.516,0.367-1.071,0.663-1.666,0.893c-0.592,0.228-1.307,0.283-2.142,0.165c-0.955-0.134-1.792-0.455-2.515-0.962
			c-0.722-0.509-1.339-1.139-1.852-1.891c-0.514-0.752-0.936-1.588-1.27-2.511c-0.333-0.923-0.587-1.858-0.756-2.81
			c-0.172-0.95-0.273-1.877-0.309-2.782c-0.035-0.903-0.009-1.713,0.079-2.428c-0.056-1.415,0.111-2.501,0.511-3.26
			s0.828-1.219,1.284-1.384c0.454-0.165,0.819-0.068,1.093,0.288c0.271,0.354,0.25,0.925-0.063,1.711
			c-0.055,0.093-0.116,0.247-0.187,0.464c-0.069,0.217-0.136,0.439-0.197,0.668c-0.06,0.228-0.119,0.44-0.176,0.64
			c-0.058,0.2-0.092,0.338-0.101,0.415c-0.069,0.541-0.095,1.185-0.075,1.932c0.018,0.747,0.093,1.536,0.225,2.365
			c0.129,0.831,0.322,1.657,0.573,2.484c0.252,0.826,0.578,1.58,0.979,2.26c0.401,0.681,0.883,1.255,1.451,1.725
			c0.567,0.471,1.23,0.758,1.992,0.865c0.48,0.068,1.059-0.083,1.738-0.447c0.68-0.366,1.344-0.821,1.996-1.367
			c0.65-0.545,1.224-1.126,1.717-1.743c0.49-0.618,0.785-1.147,0.877-1.589c0.041-0.25,0.114-0.675,0.222-1.272
			c0.106-0.598,0.215-1.23,0.322-1.896s0.204-1.3,0.291-1.901c0.086-0.6,0.148-1.017,0.187-1.248
			c0.209-0.246,0.418-0.422,0.627-0.529c0.207-0.107,0.457-0.138,0.747-0.094c0.331,0.051,0.571,0.301,0.72,0.75
			c0.147,0.45,0.233,1.003,0.26,1.662c0.025,0.659,0.001,1.371-0.076,2.131c-0.077,0.763-0.159,1.493-0.247,2.193
			c-0.088,0.702-0.166,1.319-0.235,1.853c-0.07,0.535-0.09,0.895-0.059,1.078c0.052,0.545,0.154,1.158,0.306,1.838
			c0.15,0.682,0.294,1.346,0.428,1.995c0.134,0.649,0.246,1.241,0.336,1.772c0.091,0.533,0.113,0.925,0.069,1.176
			c-0.068,0.386-0.224,0.598-0.463,0.638c-0.242,0.038-0.53,0.028-0.864-0.03c-0.415-0.07-0.705-0.223-0.867-0.459
			c-0.164-0.235-0.268-0.521-0.313-0.855c-0.046-0.336-0.06-0.706-0.043-1.108c0.017-0.405,0-0.82-0.052-1.244
			c-0.051-0.426-0.158-0.835-0.319-1.228C504.447,181.714,504.166,181.366,503.763,181.064z"/>
		<path d="M510.292,179.044c0.206-1.14,0.638-2.207,1.303-3.197c0.665-0.989,1.479-1.825,2.445-2.502
			c0.966-0.676,2.032-1.163,3.202-1.457c1.168-0.293,2.354-0.325,3.55-0.093c0.537,0.104,1.107,0.278,1.712,0.518
			c0.604,0.242,1.149,0.548,1.639,0.921c0.487,0.371,0.865,0.808,1.131,1.308c0.266,0.499,0.327,1.067,0.187,1.704
			c-0.025,0.115-0.108,0.32-0.247,0.613c-0.14,0.293-0.3,0.583-0.479,0.868c-0.179,0.286-0.365,0.534-0.561,0.744
			c-0.194,0.213-0.352,0.306-0.474,0.279c0.264-1.216,0.134-2.302-0.396-3.257c-0.531-0.956-1.486-1.571-2.86-1.84
			c-1.047-0.205-2.02-0.174-2.912,0.09c-0.893,0.263-1.678,0.677-2.358,1.243c-0.68,0.566-1.239,1.244-1.683,2.033
			c-0.442,0.789-0.744,1.619-0.907,2.488c-0.22,1.178-0.196,2.195,0.065,3.053s0.693,1.586,1.287,2.189s1.317,1.107,2.173,1.516
			c0.855,0.408,1.768,0.751,2.737,1.03c0.972,0.279,1.964,0.512,2.976,0.698s1.983,0.363,2.918,0.53
			c0.079,0.017,0.201,0.095,0.366,0.234c0.164,0.137,0.271,0.233,0.321,0.284c-0.006,0.029-0.012,0.058-0.019,0.087
			c-0.009,0.04-0.011,0.069-0.005,0.09c0.005,0.022,0.005,0.043,0.001,0.062c-0.064,0.289-0.26,0.503-0.579,0.645
			c-0.321,0.142-0.706,0.227-1.154,0.26c-0.449,0.032-0.93,0.022-1.442-0.028c-0.512-0.05-1.012-0.113-1.498-0.187
			c-0.486-0.073-0.916-0.148-1.289-0.227c-0.372-0.077-0.638-0.132-0.794-0.166c-1.51-0.312-2.842-0.747-3.998-1.312
			c-1.155-0.565-2.097-1.277-2.826-2.141c-0.729-0.863-1.233-1.881-1.515-3.059C510.027,181.893,510.021,180.552,510.292,179.044z"
			/>
		<path d="M528.286,190.493c0.013-0.057,0.064-0.188,0.153-0.391c0.09-0.203,0.184-0.425,0.283-0.667
			c0.098-0.239,0.192-0.467,0.285-0.679c0.091-0.212,0.145-0.349,0.158-0.407c0.009-0.038,0.039-0.168,0.093-0.389
			c0.053-0.222,0.118-0.477,0.196-0.764c0.079-0.287,0.153-0.578,0.224-0.877c0.072-0.299,0.128-0.535,0.17-0.708
			c0.036-0.153,0.086-0.361,0.147-0.622c0.061-0.259,0.118-0.522,0.171-0.785c0.052-0.262,0.101-0.489,0.146-0.683
			c0.046-0.191,0.074-0.308,0.083-0.346c0.199-1.195,0.341-2.478,0.42-3.852c0.08-1.374,0.144-2.75,0.188-4.132
			c0.045-1.378,0.093-2.722,0.147-4.028c0.054-1.305,0.15-2.499,0.292-3.582c0.395-0.562,0.72-0.709,0.976-0.439
			c0.256,0.269,0.451,0.794,0.584,1.575c0.134,0.781,0.224,1.738,0.267,2.876c0.044,1.138,0.051,2.283,0.021,3.436
			c-0.029,1.152-0.072,2.24-0.128,3.267c-0.055,1.026-0.101,1.819-0.129,2.383c0.029,0.048,0.12,0.096,0.269,0.14
			c0.148,0.045,0.243,0.073,0.283,0.083c0.522,0.125,1.03,0.077,1.523-0.139c0.491-0.219,0.979-0.518,1.462-0.901
			c0.483-0.383,0.966-0.805,1.452-1.269c0.484-0.463,0.98-0.882,1.49-1.256c0.509-0.374,1.035-0.663,1.577-0.865
			c0.542-0.2,1.121-0.222,1.733-0.064c0.367,0.094,0.566,0.265,0.6,0.509c0.031,0.246-0.012,0.506-0.13,0.784
			c-0.444,0.193-0.976,0.451-1.591,0.774c-0.619,0.325-1.276,0.686-1.973,1.083c-0.698,0.398-1.393,0.822-2.088,1.273
			c-0.694,0.452-1.322,0.905-1.884,1.36c-0.562,0.456-1.042,0.905-1.438,1.35c-0.397,0.444-0.642,0.86-0.737,1.245
			c-0.139,0.559-0.078,1.12,0.182,1.683c0.259,0.564,0.638,1.107,1.135,1.63c0.496,0.524,1.077,1.018,1.741,1.487
			c0.665,0.467,1.34,0.895,2.022,1.28c0.683,0.387,1.333,0.715,1.951,0.985c0.618,0.271,1.13,0.473,1.534,0.605
			c0.219,0.122,0.309,0.281,0.277,0.478c-0.035,0.198-0.078,0.393-0.132,0.584c-0.107,0.384-0.308,0.634-0.6,0.749
			c-0.294,0.117-0.625,0.165-0.995,0.145c-0.369-0.018-0.742-0.083-1.117-0.196c-0.378-0.111-0.7-0.203-0.972-0.276
			c-0.581-0.156-1.19-0.506-1.827-1.054c-0.636-0.546-1.243-1.118-1.82-1.715c-0.576-0.596-1.09-1.139-1.542-1.63
			c-0.45-0.489-0.775-0.758-0.973-0.806c-0.413-0.101-0.737,0.03-0.973,0.392c-0.234,0.362-0.438,0.767-0.607,1.213
			c-0.172,0.448-0.363,0.855-0.576,1.222c-0.214,0.367-0.517,0.503-0.905,0.41c-0.331-0.08-0.622-0.245-0.871-0.498
			C528.268,191.226,528.19,190.898,528.286,190.493z"/>
		<path d="M545.774,185.176c0.372-1.325,0.935-2.54,1.694-3.645c0.758-1.104,1.67-2.006,2.738-2.702
			c1.068-0.695,2.266-1.152,3.59-1.362c1.324-0.212,2.743-0.093,4.252,0.358c0.861,0.384,1.567,0.852,2.119,1.397
			c0.55,0.546,0.952,1.15,1.209,1.808c0.255,0.658,0.368,1.357,0.339,2.094c-0.028,0.739-0.178,1.486-0.446,2.243
			c-0.297,0.917-0.85,1.652-1.65,2.208c-0.802,0.556-1.701,0.95-2.698,1.187c-0.996,0.236-2.021,0.34-3.08,0.311
			c-1.059-0.028-2.012-0.167-2.859-0.418c-0.316-0.093-0.636-0.19-0.959-0.295c-0.323-0.104-0.599-0.242-0.827-0.413
			c-0.229-0.169-0.392-0.383-0.49-0.639c-0.096-0.257-0.086-0.586,0.03-0.988c0.039-0.134,0.091-0.239,0.157-0.314
			c0.064-0.075,0.191-0.105,0.381-0.093c0.191,0.014,0.461,0.085,0.81,0.217c0.351,0.132,0.836,0.352,1.457,0.658
			c0.356,0.105,0.928,0.144,1.714,0.118c0.789-0.026,1.602-0.118,2.447-0.281c0.844-0.161,1.611-0.402,2.303-0.721
			c0.691-0.321,1.119-0.728,1.278-1.225c0.156-0.497,0.226-1.021,0.202-1.574c-0.023-0.554-0.145-1.074-0.367-1.562
			c-0.222-0.487-0.535-0.919-0.938-1.293c-0.404-0.373-0.907-0.63-1.507-0.767c-0.977-0.208-1.913-0.217-2.808-0.029
			c-0.893,0.188-1.706,0.526-2.44,1.011c-0.734,0.487-1.363,1.093-1.888,1.815c-0.526,0.723-0.909,1.507-1.151,2.351
			c-0.189,0.653-0.367,1.323-0.533,2.012c-0.166,0.69-0.259,1.38-0.277,2.069c-0.018,0.691,0.081,1.379,0.297,2.065
			c0.215,0.685,0.611,1.358,1.19,2.017c0.577,0.66,1.364,1.301,2.361,1.929c0.995,0.627,2.282,1.229,3.86,1.812
			c2.347,0.577,4.689,1.178,7.029,1.803c-0.609,0.409-1.282,0.689-2.017,0.846c-0.735,0.158-1.486,0.23-2.257,0.219
			c-0.771-0.012-1.521-0.082-2.251-0.211c-0.73-0.13-1.393-0.289-1.987-0.477c-1.477-0.467-2.799-1.137-3.976-2.015
			c-1.177-0.877-2.135-1.905-2.876-3.086c-0.742-1.184-1.234-2.49-1.475-3.925C545.234,188.254,545.331,186.75,545.774,185.176z"/>
		<path d="M572.305,190.362c-0.197-0.07-0.56-0.204-1.089-0.401c-0.53-0.197-1.061-0.437-1.595-0.718
			c-0.532-0.281-0.992-0.598-1.379-0.953s-0.524-0.727-0.414-1.114c0.039-0.115,0.111-0.26,0.218-0.437
			c0.104-0.177,0.268-0.229,0.485-0.154c1.411,0.362,2.82,0.733,4.229,1.112c0.45-0.887,0.807-1.624,1.061-2.208
			c0.256-0.583,0.466-1.14,0.634-1.67c0.168-0.527,0.329-1.086,0.484-1.673c0.153-0.587,0.383-1.34,0.691-2.257
			c0.062-0.171,0.15-0.294,0.271-0.37c0.117-0.077,0.249-0.122,0.392-0.136c0.143-0.014,0.288-0.005,0.437,0.025
			c0.149,0.031,0.275,0.066,0.377,0.102c0.162,0.057,0.313,0.164,0.452,0.32c0.138,0.156,0.244,0.333,0.321,0.532
			c0.077,0.199,0.124,0.398,0.143,0.598s0,0.375-0.056,0.527c-0.755,2.399-1.512,4.799-2.27,7.197
			c1.112,0.457,2.223,0.919,3.33,1.387c0.469,0.132,0.854,0.38,1.156,0.742c0.301,0.362,0.352,0.832,0.153,1.406
			c-0.438,0.201-0.89,0.252-1.355,0.151c-0.468-0.1-0.944-0.246-1.431-0.438c-0.488-0.192-0.97-0.371-1.445-0.534
			c-0.476-0.164-0.934-0.197-1.37-0.099c-0.056,0.152-0.198,0.572-0.431,1.263c-0.231,0.688-0.502,1.504-0.815,2.442
			c-0.312,0.939-0.643,1.947-0.995,3.022c-0.353,1.077-0.68,2.069-0.981,2.979c-0.303,0.912-0.561,1.687-0.775,2.328
			c-0.215,0.642-0.335,1.001-0.364,1.077c-0.71,0.124-1.17-0.084-1.382-0.623c-0.211-0.54-0.28-1.262-0.2-2.167
			c0.078-0.905,0.271-1.923,0.58-3.055c0.309-1.132,0.652-2.241,1.031-3.327c0.378-1.086,0.743-2.07,1.093-2.95
			C571.845,191.408,572.114,190.765,572.305,190.362z"/>
		<path d="M591.218,212.589c0.518-1.89,1.128-3.731,1.833-5.526c0.705-1.793,1.444-3.568,2.224-5.319
			c0.775-1.75,1.57-3.489,2.383-5.215c0.813-1.726,1.596-3.47,2.344-5.234c0.09-0.205,0.23-0.31,0.422-0.316
			s0.387,0.033,0.584,0.119c0.238,0.103,0.413,0.28,0.527,0.53c0.112,0.25,0.182,0.52,0.206,0.809
			c0.025,0.289,0.017,0.57-0.021,0.843c-0.039,0.272-0.092,0.483-0.157,0.633c-1.432,3.629-2.651,6.638-3.66,9.027
			c-1.008,2.388-1.859,4.298-2.555,5.732c-0.695,1.433-1.255,2.473-1.675,3.122c-0.424,0.649-0.778,1.06-1.066,1.232
			c-0.286,0.173-0.531,0.187-0.731,0.041C591.672,212.92,591.453,212.76,591.218,212.589z"/>
		<path d="M604.593,192.208c0.135-0.297,0.312-0.453,0.531-0.466c0.22-0.014,0.479,0.046,0.775,0.179
			c0.186,0.062,0.38,0.277,0.58,0.647c0.198,0.372,0.333,0.753,0.402,1.143c0.07,0.392,0.053,0.727-0.052,1.004
			c-0.105,0.278-0.376,0.35-0.813,0.219c-0.069-0.031-0.138-0.062-0.206-0.093c-0.392-0.178-0.705-0.344-0.943-0.496
			c-0.239-0.152-0.405-0.322-0.497-0.508c-0.093-0.186-0.122-0.407-0.09-0.662C604.312,192.922,604.416,192.599,604.593,192.208z
			 M602.322,202.452c0.052-0.112,0.139-0.302,0.262-0.572c0.123-0.27,0.258-0.551,0.404-0.843c0.146-0.294,0.28-0.575,0.405-0.844
			c0.122-0.27,0.21-0.46,0.262-0.572c0.232-0.814,0.648-1.086,1.25-0.811c0.271,0.125,0.466,0.288,0.585,0.489
			c0.118,0.201,0.193,0.467,0.228,0.797c-0.682,1.264-1.207,2.537-1.582,3.818c-0.376,1.281-0.713,2.563-1.014,3.846
			s-0.623,2.569-0.965,3.858c-0.342,1.288-0.815,2.57-1.417,3.848c-0.157,0.333-0.424,0.626-0.801,0.877
			c-0.375,0.25-0.773,0.275-1.196,0.075c-0.312-0.147-0.458-0.557-0.439-1.225c0.019-0.67,0.141-1.47,0.367-2.402
			c0.226-0.933,0.517-1.947,0.873-3.045c0.355-1.097,0.718-2.134,1.087-3.113c0.368-0.978,0.709-1.85,1.026-2.616
			C601.973,203.252,602.195,202.73,602.322,202.452z"/>
		<path d="M603.463,213.162c0.273-0.049,0.497-0.062,0.668-0.035c0.17,0.025,0.367,0.092,0.59,0.2
			c0.223,0.108,0.412,0.274,0.567,0.499c0.155,0.225,0.291,0.462,0.41,0.714c0.118,0.252,0.235,0.505,0.354,0.757
			c0.118,0.253,0.265,0.48,0.44,0.682c0.49,0.587,0.883,1.059,1.176,1.414c0.294,0.354,0.584,0.661,0.867,0.919
			c0.282,0.26,0.619,0.505,1.008,0.736c0.387,0.234,0.919,0.523,1.592,0.873c0.511,0.264,1.122,0.588,1.837,0.974
			c0.713,0.385,1.428,0.689,2.146,0.91c0.721,0.22,1.404,0.278,2.054,0.172c0.651-0.105,1.171-0.521,1.559-1.25
			c0.396-0.702,0.501-1.361,0.31-1.98c-0.19-0.617-0.572-1.213-1.143-1.785c-0.571-0.571-1.269-1.132-2.091-1.677
			c-0.823-0.545-1.665-1.101-2.523-1.667c-0.86-0.566-1.688-1.162-2.482-1.79c-0.797-0.627-1.444-1.308-1.945-2.047
			c-0.502-0.737-0.809-1.546-0.92-2.431c-0.11-0.885,0.083-1.877,0.587-2.977c0.524-0.704,1.241-1.172,2.156-1.403
			c0.914-0.23,1.897-0.26,2.945-0.09c1.047,0.17,2.086,0.5,3.109,0.991c1.024,0.49,1.897,1.089,2.62,1.794
			c0.723,0.706,1.225,1.481,1.508,2.326c0.284,0.845,0.212,1.692-0.207,2.542c-0.201,0.523-0.451,0.91-0.75,1.161
			c-0.297,0.25-0.591,0.4-0.876,0.448c-0.287,0.047-0.54,0.007-0.759-0.119c-0.22-0.126-0.353-0.307-0.398-0.538
			c-0.046-0.233,0.02-0.5,0.198-0.803c0.179-0.3,0.518-0.612,1.019-0.932c0.142-0.507,0.047-1.02-0.284-1.538
			c-0.333-0.52-0.795-0.994-1.39-1.424c-0.595-0.429-1.264-0.795-2.004-1.099c-0.742-0.302-1.462-0.505-2.158-0.608
			c-0.695-0.103-1.309-0.083-1.837,0.058c-0.529,0.142-0.868,0.439-1.017,0.891c-0.358,0.738-0.418,1.416-0.183,2.035
			c0.235,0.618,0.656,1.215,1.262,1.792c0.604,0.576,1.337,1.14,2.198,1.692c0.859,0.552,1.743,1.121,2.645,1.705
			s1.761,1.197,2.574,1.837c0.812,0.641,1.474,1.329,1.985,2.062c0.51,0.732,0.81,1.525,0.896,2.374
			c0.089,0.849-0.142,1.773-0.681,2.772c-0.405,0.745-0.948,1.28-1.63,1.612c-0.682,0.331-1.412,0.519-2.189,0.563
			c-0.781,0.046-1.562-0.031-2.345-0.231c-0.783-0.199-1.49-0.467-2.122-0.8c-0.612-0.325-1.273-0.679-1.982-1.062
			c-0.71-0.381-1.418-0.8-2.124-1.255c-0.707-0.455-1.392-0.954-2.057-1.495c-0.666-0.543-1.24-1.139-1.729-1.793
			s-0.866-1.365-1.134-2.134C603.517,214.941,603.409,214.093,603.463,213.162z"/>
		<path d="M631.613,217.606c-0.185-0.106-0.523-0.305-1.019-0.598c-0.493-0.293-0.981-0.628-1.465-1.006
			c-0.483-0.378-0.886-0.781-1.21-1.208c-0.322-0.429-0.396-0.828-0.216-1.201c0.06-0.109,0.158-0.243,0.294-0.405
			c0.138-0.16,0.309-0.185,0.516-0.071c1.345,0.615,2.688,1.237,4.028,1.869c0.61-0.82,1.095-1.503,1.454-2.05
			c0.357-0.547,0.668-1.074,0.93-1.581c0.262-0.506,0.521-1.044,0.78-1.611c0.258-0.567,0.622-1.29,1.093-2.167
			c0.092-0.163,0.203-0.271,0.336-0.327s0.271-0.08,0.417-0.068c0.146,0.011,0.29,0.044,0.434,0.102
			c0.144,0.058,0.264,0.114,0.359,0.168c0.152,0.087,0.283,0.221,0.395,0.403c0.109,0.183,0.187,0.381,0.228,0.596
			s0.053,0.424,0.036,0.63c-0.018,0.205-0.066,0.38-0.148,0.523c-1.182,2.299-2.365,4.597-3.551,6.895
			c1.032,0.658,2.061,1.322,3.087,1.992c0.445,0.215,0.788,0.535,1.024,0.954c0.237,0.421,0.205,0.906-0.096,1.453
			c-0.475,0.126-0.934,0.099-1.384-0.085c-0.449-0.183-0.901-0.416-1.354-0.696c-0.454-0.281-0.903-0.546-1.351-0.794
			c-0.446-0.25-0.898-0.364-1.352-0.341c-0.084,0.144-0.301,0.545-0.656,1.202c-0.354,0.658-0.77,1.437-1.249,2.333
			c-0.479,0.896-0.991,1.859-1.533,2.887c-0.544,1.029-1.047,1.977-1.511,2.847c-0.465,0.87-0.861,1.61-1.189,2.223
			c-0.329,0.612-0.513,0.956-0.556,1.027c-0.733,0-1.154-0.291-1.272-0.875c-0.114-0.582-0.053-1.326,0.188-2.229
			c0.238-0.903,0.611-1.899,1.122-2.993c0.51-1.093,1.05-2.157,1.622-3.19c0.571-1.034,1.11-1.966,1.617-2.797
			C630.967,218.585,631.352,217.982,631.613,217.606z"/>
		<path d="M644.268,230.652c-0.369,0.588-0.738,1.177-1.107,1.765c-2.239-1.436-4.491-2.846-6.755-4.229
			c0.355-0.594,0.711-1.188,1.066-1.782C639.749,227.794,642.015,229.21,644.268,230.652z"/>
	</g>
</g>
</svg>
